<svg
    viewBox="0 0 300 300"
    preserveAspectRatio="xMidYMid meet"
    height="16px"
    width="16px"
    style="transform: rotate(90deg)"
>   
    <path
        d="M10 -10 L10 100 c 0,0 0,1 1,0 L120 0 c 0,0 1,1 0,0 L230 100 c 1,0 0,1 0,0 L230 -10"
        style="stroke: #3E8ED0; stroke-width: 25; fill: none; transform: translate(30px, 170px); transform-origin: 50% 50%;"
        />
    <path
        d="M10 -10 L10 100 c 0,0 0,1 1,0 L120 0 c 0,0 1,1 0,0 L230 100 c 1,0 0,1 0,0 L230 -10"
        style="stroke: #CE7A34; stroke-width: 25; fill: none; transform: rotate(180deg) translate(30px, 170px); transform-origin: 50% 50%;"
        />
    <line
        x1="95"
        y1="180"
        x2="265"
        y2="180"
        style="stroke: #868482; stroke-width: 7; fill: none; transform: translate(-30px, -30px);"
    />
</svg>