<?xml version="1.0" standalone="no"?>
<!DOCTYPE svg PUBLIC "-//W3C//DTD SVG 20010904//EN"
 "http://www.w3.org/TR/2001/REC-SVG-20010904/DTD/svg10.dtd">
<svg version="1.0" xmlns="http://www.w3.org/2000/svg"
 width="451.000000pt" height="451.000000pt" viewBox="0 0 451.000000 451.000000"
 preserveAspectRatio="xMidYMid meet">
<metadata>
Created by potrace 1.14, written by Peter Selinger 2001-2017
</metadata>
<g transform="translate(0.000000,451.000000) scale(0.100000,-0.100000)"
fill="#000000" stroke="none">
<path d="M781 4279 c-81 -11 -190 -69 -250 -135 -136 -149 -156 -356 -53 -564
44 -90 112 -160 572 -590 25 -23 83 -78 130 -123 47 -44 121 -115 165 -156 45
-42 152 -143 239 -226 87 -82 174 -164 192 -182 19 -17 34 -38 34 -46 0 -7
-57 -67 -127 -133 -153 -144 -277 -260 -352 -332 -49 -47 -164 -156 -346 -327
-396 -373 -415 -392 -461 -455 -66 -89 -111 -226 -113 -340 -3 -163 102 -324
259 -399 l75 -36 670 -2 670 -3 45 23 c85 44 126 139 101 234 -15 54 -78 117
-131 131 -24 6 -260 10 -614 10 -317 0 -580 3 -586 7 -5 3 -10 12 -10 19 0 10
186 238 209 256 3 3 29 32 56 65 28 33 60 71 72 85 44 52 718 837 762 889 25
30 81 95 125 145 43 50 82 101 87 114 12 32 11 79 -2 105 -10 17 -95 124 -119
147 -3 3 -45 52 -95 110 -119 141 -208 244 -215 250 -3 3 -41 48 -85 100 -44
52 -92 108 -106 125 -47 54 -172 199 -284 331 -60 71 -112 131 -115 134 -34
30 -286 337 -288 350 -2 11 4 20 15 23 10 3 279 5 598 5 567 -1 581 -1 620 19
152 78 152 280 1 360 -28 15 -93 17 -661 18 -346 0 -654 -3 -684 -6z"/>
<path d="M2406 4272 c-190 -63 -169 -347 28 -379 17 -3 290 -6 606 -7 567 -1
575 -1 578 -21 1 -13 -26 -53 -79 -115 -45 -52 -102 -119 -128 -149 -25 -30
-51 -59 -56 -65 -6 -6 -102 -119 -215 -251 -206 -241 -247 -288 -265 -309 -5
-6 -35 -40 -65 -76 -30 -36 -67 -78 -81 -95 -215 -245 -419 -493 -424 -515
-15 -70 -12 -75 338 -480 12 -14 45 -52 72 -85 28 -33 55 -64 61 -70 9 -8 119
-138 199 -234 11 -13 25 -29 31 -35 5 -6 66 -76 134 -156 68 -80 126 -147 129
-150 5 -4 100 -116 186 -219 11 -13 25 -29 31 -35 5 -6 38 -43 72 -83 61 -70
73 -95 52 -108 -6 -4 -274 -7 -596 -7 l-584 0 -48 -24 c-27 -14 -59 -41 -76
-66 -25 -34 -30 -51 -30 -102 -1 -95 46 -164 133 -194 44 -16 1283 -16 1350
-1 164 37 296 172 332 338 15 72 6 191 -21 272 -47 141 -77 176 -420 499 -85
80 -174 165 -199 188 -80 76 -305 288 -341 322 -19 18 -98 92 -175 165 -77 73
-161 153 -187 177 -45 42 -60 72 -39 80 5 2 73 64 152 139 79 75 167 158 194
184 28 26 109 102 180 170 72 67 150 142 175 165 25 23 107 101 184 174 76 72
150 142 165 155 276 251 342 368 337 592 -2 89 -5 102 -38 170 -58 115 -132
182 -253 229 l-60 23 -649 1 c-525 1 -656 -1 -690 -12z"/>
<path d="M2166 3695 c-8 -8 -13 -24 -11 -34 2 -11 6 -46 10 -78 3 -32 7 -71 9
-88 8 -59 20 -200 30 -350 4 -55 9 -122 11 -150 8 -88 17 -344 19 -546 2 -108
6 -201 10 -208 4 -6 4 -11 -1 -11 -4 0 -8 -55 -9 -123 0 -125 -11 -432 -18
-522 -2 -27 -7 -93 -11 -145 -4 -52 -8 -108 -10 -125 -1 -16 -6 -66 -9 -110
-4 -44 -9 -87 -11 -95 -2 -8 -7 -51 -10 -95 -4 -43 -9 -83 -11 -87 -3 -4 4
-16 14 -26 16 -16 31 -19 91 -16 39 2 76 6 82 9 9 6 6 139 -6 215 -2 14 -7 72
-11 130 -3 58 -8 119 -9 135 -1 17 -6 87 -10 157 -3 70 -8 150 -10 178 -18
263 -23 857 -11 1165 8 195 9 214 20 350 4 44 9 107 11 140 3 33 7 76 10 95 2
19 7 60 10 90 3 30 8 72 11 93 9 57 -5 67 -92 67 -51 0 -77 -4 -88 -15z"/>
</g>
</svg>
