<svg id="svg" version="1.1" xmlns="http://www.w3.org/2000/svg" xmlns:xlink="http://www.w3.org/1999/xlink" width="400" height="110.02044989775051" viewBox="0, 0, 400,110.02044989775051"><g id="svgg"><path id="path0" d="M337.231 23.792 C 337.181 23.952,337.064 24.269,336.973 24.497 C 336.832 24.845,336.870 24.966,337.220 25.267 C 337.449 25.463,337.842 25.951,338.094 26.350 C 338.346 26.749,338.654 27.177,338.778 27.301 C 338.902 27.425,338.965 27.588,338.919 27.663 C 338.873 27.737,338.947 27.841,339.084 27.894 C 339.221 27.947,339.333 28.104,339.333 28.245 C 339.333 28.385,339.408 28.500,339.500 28.500 C 339.592 28.500,339.667 28.650,339.667 28.833 C 339.667 29.019,339.778 29.167,339.917 29.167 C 340.054 29.167,340.167 29.306,340.167 29.476 C 340.167 29.646,340.354 29.987,340.583 30.234 C 340.813 30.482,341.000 30.830,341.000 31.009 C 341.000 31.187,341.075 31.333,341.167 31.333 C 341.258 31.333,341.333 31.521,341.333 31.750 C 341.333 31.979,341.408 32.167,341.500 32.167 C 341.592 32.167,341.667 32.348,341.667 32.569 C 341.667 32.803,341.910 33.222,342.250 33.572 L 342.834 34.174 353.289 34.128 L 363.744 34.083 363.802 33.292 C 363.844 32.703,363.800 32.500,363.630 32.500 C 363.504 32.500,363.305 32.237,363.189 31.917 C 363.073 31.596,362.871 31.333,362.739 31.333 C 362.606 31.333,362.500 31.175,362.500 30.975 C 362.500 30.778,362.238 30.362,361.917 30.050 C 361.596 29.739,361.333 29.370,361.333 29.230 C 361.333 28.937,360.941 28.500,360.679 28.500 C 360.580 28.500,360.500 28.340,360.500 28.145 C 360.500 27.949,360.238 27.542,359.917 27.239 C 359.596 26.937,359.333 26.569,359.333 26.423 C 359.333 26.276,359.221 26.113,359.083 26.060 C 358.946 26.008,358.833 25.860,358.833 25.732 C 358.833 25.604,358.758 25.500,358.667 25.500 C 358.575 25.500,358.500 25.385,358.500 25.245 C 358.500 25.104,358.387 24.946,358.250 24.894 C 358.113 24.841,358.000 24.730,358.000 24.647 C 358.000 24.565,357.786 24.273,357.524 23.998 L 357.047 23.500 347.185 23.500 C 337.939 23.500,337.317 23.518,337.231 23.792 M343.279 39.345 C 342.973 39.703,342.903 41.500,343.195 41.500 C 343.271 41.500,343.333 43.262,343.333 45.417 L 343.333 49.333 355.833 49.333 C 364.404 49.333,368.333 49.279,368.333 49.159 C 368.333 49.064,368.521 48.783,368.750 48.536 C 368.979 48.289,369.167 47.992,369.167 47.877 C 369.167 47.761,369.242 47.667,369.333 47.667 C 369.425 47.667,369.500 47.562,369.500 47.434 C 369.500 47.307,369.613 47.159,369.750 47.106 C 369.887 47.054,370.000 46.891,370.000 46.744 C 370.000 46.598,370.262 46.230,370.583 45.927 C 371.363 45.192,371.455 43.585,370.750 43.030 C 370.521 42.850,370.333 42.571,370.333 42.412 C 370.333 42.252,370.146 41.948,369.917 41.735 C 369.688 41.523,369.498 41.252,369.495 41.133 C 369.488 40.873,369.099 40.333,368.917 40.333 C 368.717 40.333,368.345 39.783,368.339 39.479 C 368.330 39.023,367.710 39.000,355.433 39.000 C 343.650 39.000,343.572 39.002,343.279 39.345 M342.167 55.066 C 342.167 55.285,342.054 55.508,341.917 55.560 C 341.779 55.613,341.667 55.809,341.667 55.995 C 341.667 56.181,341.592 56.333,341.500 56.333 C 341.408 56.333,341.333 56.479,341.333 56.657 C 341.333 56.835,341.258 57.027,341.167 57.083 C 341.075 57.140,341.000 57.332,341.000 57.510 C 341.000 57.688,340.939 57.833,340.865 57.833 C 340.718 57.833,340.167 58.995,340.167 59.306 C 340.167 59.413,340.054 59.500,339.917 59.500 C 339.779 59.500,339.667 59.612,339.667 59.750 C 339.667 59.887,339.592 60.000,339.500 60.000 C 339.408 60.000,339.333 60.188,339.333 60.417 C 339.333 60.676,339.239 60.833,339.083 60.833 C 338.944 60.833,338.833 60.981,338.833 61.167 C 338.833 61.350,338.758 61.500,338.667 61.500 C 338.575 61.500,338.500 61.612,338.500 61.750 C 338.500 61.887,338.397 62.000,338.270 62.000 C 338.144 62.000,337.940 62.244,337.816 62.542 C 337.693 62.840,337.440 63.233,337.255 63.417 C 336.879 63.787,336.723 64.333,336.993 64.333 C 337.088 64.333,337.167 64.446,337.167 64.583 C 337.167 64.803,338.413 64.833,347.386 64.833 L 357.604 64.833 357.833 64.250 C 357.959 63.929,358.161 63.667,358.281 63.667 C 358.401 63.667,358.500 63.554,358.500 63.417 C 358.500 63.279,358.575 63.167,358.667 63.167 C 358.758 63.167,358.833 62.979,358.833 62.750 C 358.833 62.491,358.928 62.333,359.083 62.333 C 359.221 62.333,359.333 62.266,359.333 62.184 C 359.333 62.102,359.520 61.858,359.747 61.642 C 359.975 61.427,360.162 61.146,360.164 61.019 C 360.165 60.892,360.335 60.626,360.542 60.427 C 360.748 60.228,360.935 59.978,360.957 59.871 C 360.979 59.764,361.260 59.405,361.582 59.074 C 361.903 58.742,362.167 58.362,362.167 58.228 C 362.167 58.094,362.354 57.797,362.583 57.568 C 362.813 57.339,363.000 57.042,363.000 56.909 C 363.000 56.776,363.075 56.667,363.167 56.667 C 363.258 56.667,363.333 56.554,363.333 56.417 C 363.333 56.279,363.446 56.167,363.583 56.167 C 363.769 56.167,363.833 55.972,363.833 55.417 L 363.833 54.667 353.000 54.667 L 342.167 54.667 342.167 55.066 " stroke="none" fill="#2494d4" fill-rule="evenodd"></path><path id="path1" d="M219.458 73.115 C 219.298 73.157,219.167 73.261,219.167 73.346 C 219.167 73.430,218.867 73.500,218.500 73.500 C 218.133 73.500,217.833 73.575,217.833 73.667 C 217.833 73.758,217.682 73.833,217.497 73.833 C 217.271 73.833,217.066 74.038,216.872 74.458 C 216.713 74.802,216.490 75.143,216.375 75.217 C 216.075 75.409,216.092 77.606,216.395 77.783 C 216.899 78.078,216.873 78.624,216.340 78.939 C 216.061 79.104,215.833 79.335,215.833 79.453 C 215.833 79.570,215.773 79.667,215.699 79.667 C 215.186 79.667,214.695 83.125,215.167 83.417 C 215.258 83.473,215.333 83.668,215.333 83.848 C 215.333 84.029,215.446 84.220,215.583 84.273 C 215.721 84.326,215.833 84.441,215.833 84.530 C 215.833 84.746,216.266 85.167,216.488 85.167 C 216.586 85.167,216.667 85.227,216.667 85.301 C 216.667 85.375,216.954 85.563,217.306 85.718 C 218.018 86.032,220.500 86.122,220.500 85.833 C 220.500 85.742,220.661 85.667,220.857 85.667 C 221.053 85.667,221.436 85.434,221.708 85.149 L 222.202 84.632 222.899 85.316 C 223.282 85.692,223.706 85.998,223.840 85.995 C 224.160 85.988,224.667 85.597,224.667 85.357 C 224.667 85.252,224.747 85.167,224.845 85.167 C 225.166 85.167,225.500 84.700,225.500 84.250 C 225.500 83.800,225.166 83.333,224.845 83.333 C 224.747 83.333,224.667 83.221,224.667 83.083 C 224.667 82.946,224.610 82.833,224.540 82.833 C 224.143 82.833,223.742 81.571,224.095 81.435 C 224.226 81.385,224.333 81.191,224.333 81.005 C 224.333 80.819,224.408 80.667,224.500 80.667 C 224.592 80.667,224.667 80.558,224.667 80.425 C 224.667 80.292,224.760 80.123,224.875 80.050 C 225.233 79.821,225.500 79.195,225.500 78.586 L 225.500 78.000 224.283 78.000 C 223.559 78.000,222.986 78.081,222.867 78.200 C 222.711 78.356,222.667 78.302,222.667 77.960 C 222.667 77.718,222.742 77.473,222.833 77.417 C 222.925 77.360,223.000 76.943,223.000 76.490 C 223.000 76.037,222.925 75.667,222.833 75.667 C 222.742 75.667,222.667 75.453,222.667 75.192 C 222.667 74.439,221.655 73.500,220.843 73.500 C 220.427 73.500,220.169 73.412,220.106 73.250 C 220.008 72.994,219.960 72.984,219.458 73.115 M38.333 74.281 C 37.921 74.508,37.465 74.801,37.320 74.931 C 37.175 75.060,36.969 75.167,36.862 75.167 C 36.755 75.167,36.667 75.292,36.667 75.444 C 36.667 75.597,36.615 75.671,36.552 75.608 C 36.412 75.468,35.552 76.816,35.404 77.409 C 35.345 77.644,35.230 77.878,35.148 77.928 C 35.067 77.978,35.000 78.804,35.000 79.762 C 35.000 81.849,35.683 83.623,36.812 84.466 C 37.145 84.714,37.442 84.973,37.472 85.042 C 37.503 85.110,37.709 85.167,37.931 85.167 C 38.177 85.167,38.333 85.263,38.333 85.417 C 38.333 85.571,38.490 85.667,38.740 85.667 C 38.964 85.667,39.193 85.742,39.250 85.833 C 39.307 85.925,40.054 86.000,40.917 86.000 C 41.779 86.000,42.527 85.925,42.583 85.833 C 42.640 85.742,42.944 85.667,43.260 85.667 C 43.575 85.667,43.833 85.600,43.833 85.518 C 43.833 85.436,44.021 85.322,44.250 85.265 C 44.479 85.207,44.667 85.087,44.667 84.997 C 44.667 84.907,44.747 84.833,44.844 84.833 C 45.012 84.833,45.767 84.037,46.046 83.565 C 46.235 83.247,46.017 82.547,45.694 82.434 C 45.542 82.381,45.192 82.192,44.917 82.014 C 44.339 81.641,43.432 81.573,43.071 81.875 C 42.934 81.990,42.731 82.159,42.619 82.252 C 41.345 83.313,39.077 82.721,38.595 81.202 C 38.530 80.999,38.408 80.833,38.322 80.833 C 38.046 80.833,38.136 79.048,38.417 78.940 C 38.554 78.887,38.667 78.706,38.667 78.537 C 38.667 78.162,39.256 77.500,39.590 77.500 C 39.724 77.500,39.833 77.387,39.833 77.250 C 39.833 77.052,40.072 77.000,40.982 77.000 C 41.850 77.000,42.155 77.061,42.227 77.250 C 42.280 77.387,42.420 77.500,42.539 77.500 C 42.657 77.500,42.895 77.688,43.067 77.917 C 43.424 78.392,44.333 78.512,44.333 78.083 C 44.333 77.863,44.647 77.747,45.054 77.818 C 45.130 77.831,45.144 77.765,45.086 77.671 C 45.028 77.577,45.068 77.500,45.174 77.500 C 45.637 77.500,46.283 76.746,46.097 76.424 C 45.801 75.911,44.530 74.699,44.169 74.584 C 43.984 74.525,43.833 74.408,43.833 74.322 C 43.833 74.237,43.688 74.167,43.510 74.167 C 43.332 74.167,43.140 74.092,43.083 74.000 C 42.846 73.616,39.142 73.835,38.333 74.281 M50.087 74.385 C 48.811 75.066,47.333 76.665,47.333 77.364 C 47.333 77.452,47.217 77.640,47.076 77.781 C 46.719 78.138,46.743 81.833,47.102 81.833 C 47.246 81.833,47.333 82.015,47.333 82.313 C 47.333 82.577,47.448 82.887,47.587 83.003 C 47.727 83.119,47.805 83.250,47.761 83.295 C 47.632 83.424,49.409 85.115,49.806 85.241 C 50.004 85.304,50.167 85.426,50.167 85.511 C 50.167 85.597,50.387 85.667,50.657 85.667 C 50.926 85.667,51.193 85.742,51.250 85.833 C 51.307 85.925,52.019 86.000,52.833 86.000 C 53.648 86.000,54.360 85.925,54.417 85.833 C 54.473 85.742,54.731 85.667,54.989 85.667 C 55.248 85.667,55.553 85.554,55.667 85.417 C 55.781 85.279,56.015 85.167,56.187 85.167 C 56.359 85.167,56.500 85.092,56.500 85.000 C 56.500 84.908,56.569 84.833,56.654 84.833 C 56.738 84.833,57.038 84.603,57.321 84.321 C 57.603 84.038,57.833 83.738,57.833 83.654 C 57.833 83.569,57.907 83.500,57.997 83.500 C 58.087 83.500,58.207 83.313,58.265 83.083 C 58.322 82.854,58.436 82.667,58.518 82.667 C 58.600 82.667,58.669 82.423,58.672 82.125 C 58.675 81.827,58.773 81.458,58.889 81.304 C 59.141 80.974,59.097 78.531,58.835 78.269 C 58.743 78.176,58.667 77.890,58.667 77.633 C 58.667 77.377,58.592 77.167,58.500 77.167 C 58.408 77.167,58.333 77.046,58.333 76.899 C 58.333 76.627,56.532 74.670,56.280 74.668 C 56.204 74.667,56.025 74.548,55.880 74.404 C 55.735 74.259,55.483 74.176,55.319 74.219 C 55.156 74.261,54.982 74.192,54.933 74.065 C 54.733 73.544,51.229 73.775,50.087 74.385 M60.683 74.064 C 60.383 74.425,60.341 85.467,60.639 85.581 C 60.761 85.628,61.521 85.667,62.329 85.667 C 64.072 85.667,64.000 85.758,64.000 83.549 C 64.000 81.823,64.157 81.690,64.742 82.924 C 64.893 83.241,65.087 83.500,65.174 83.500 C 65.262 83.500,65.332 83.594,65.331 83.708 C 65.329 83.823,65.533 84.310,65.783 84.792 L 66.237 85.667 67.952 85.667 L 69.667 85.667 69.667 85.224 C 69.667 84.981,69.479 84.536,69.250 84.235 C 69.021 83.935,68.833 83.609,68.833 83.511 C 68.833 83.413,68.758 83.333,68.667 83.333 C 68.575 83.333,68.500 83.181,68.500 82.995 C 68.500 82.809,68.387 82.613,68.250 82.560 C 68.112 82.508,68.000 82.327,68.000 82.159 C 68.000 81.991,67.925 81.806,67.832 81.749 C 67.740 81.692,67.925 81.400,68.249 81.095 C 68.570 80.792,68.833 80.384,68.833 80.189 C 68.833 79.993,68.927 79.852,69.042 79.875 C 69.381 79.943,69.425 76.450,69.089 76.171 C 68.948 76.055,68.833 75.856,68.833 75.730 C 68.833 75.603,68.777 75.500,68.708 75.500 C 68.640 75.500,68.283 75.232,67.917 74.905 C 67.550 74.578,67.042 74.268,66.788 74.217 C 66.534 74.166,66.286 74.058,66.237 73.978 C 66.077 73.719,60.903 73.799,60.683 74.064 M71.081 74.212 C 71.031 74.416,71.011 77.058,71.037 80.083 L 71.083 85.583 72.625 85.631 L 74.167 85.679 74.167 84.006 L 74.167 82.333 75.490 82.333 C 76.218 82.333,76.860 82.258,76.917 82.167 C 76.973 82.075,77.203 82.000,77.427 82.000 C 77.677 82.000,77.833 81.904,77.833 81.750 C 77.833 81.612,77.949 81.500,78.091 81.500 C 78.315 81.500,78.629 81.217,79.331 80.382 C 79.424 80.271,79.500 80.034,79.500 79.854 C 79.500 79.675,79.582 79.501,79.681 79.467 C 79.962 79.374,80.018 77.676,79.760 77.093 C 79.635 76.813,79.433 76.340,79.309 76.042 C 79.186 75.744,79.030 75.500,78.962 75.500 C 78.895 75.500,78.587 75.256,78.278 74.958 C 77.165 73.885,71.308 73.277,71.081 74.212 M84.637 74.042 C 84.516 74.156,84.267 74.276,84.083 74.308 C 83.900 74.340,83.712 74.428,83.665 74.503 C 83.618 74.578,83.472 74.665,83.341 74.695 C 83.209 74.725,82.939 74.919,82.740 75.125 C 82.541 75.331,82.281 75.500,82.161 75.500 C 82.042 75.500,81.992 75.548,82.051 75.607 C 82.110 75.665,81.951 75.984,81.699 76.315 C 81.079 77.127,80.870 77.612,80.755 78.500 C 80.702 78.912,80.616 79.522,80.564 79.855 C 80.507 80.215,80.543 80.507,80.651 80.574 C 80.751 80.636,80.833 81.057,80.833 81.510 C 80.833 81.963,80.908 82.333,81.000 82.333 C 81.092 82.333,81.167 82.486,81.167 82.672 C 81.167 82.858,81.279 83.054,81.417 83.106 C 81.554 83.159,81.667 83.300,81.667 83.420 C 81.667 83.683,82.755 84.833,83.004 84.833 C 83.170 84.833,83.358 84.963,83.911 85.458 C 84.038 85.573,84.331 85.667,84.562 85.667 C 84.792 85.667,85.027 85.742,85.083 85.833 C 85.140 85.925,85.887 86.000,86.750 86.000 C 87.613 86.000,88.360 85.925,88.417 85.833 C 88.473 85.742,88.666 85.667,88.845 85.667 C 89.228 85.667,89.860 85.339,90.050 85.042 C 90.123 84.927,90.281 84.833,90.399 84.833 C 90.670 84.833,91.333 84.270,91.333 84.040 C 91.333 83.946,91.446 83.826,91.583 83.773 C 91.721 83.720,91.833 83.562,91.833 83.422 C 91.833 83.282,91.908 83.167,92.000 83.167 C 92.092 83.167,92.167 82.979,92.167 82.750 C 92.167 82.517,92.263 82.333,92.386 82.333 C 92.530 82.333,92.618 82.064,92.644 81.542 C 92.667 81.106,92.756 80.725,92.842 80.694 C 93.047 80.622,93.047 79.281,92.842 79.075 C 92.755 78.988,92.665 78.590,92.642 78.190 C 92.618 77.783,92.504 77.427,92.383 77.381 C 92.264 77.335,92.167 77.167,92.167 77.007 C 92.167 76.846,91.979 76.513,91.750 76.266 C 91.521 76.018,91.333 75.781,91.333 75.739 C 91.333 75.550,90.222 74.676,89.976 74.672 C 89.826 74.669,89.657 74.549,89.602 74.406 C 89.547 74.263,89.438 74.185,89.359 74.234 C 89.280 74.283,89.073 74.215,88.900 74.083 C 88.480 73.766,84.965 73.731,84.637 74.042 M94.444 73.944 C 94.383 74.006,94.333 76.668,94.333 79.861 L 94.333 85.667 95.917 85.667 L 97.500 85.667 97.500 83.833 C 97.500 82.641,97.562 82.000,97.679 82.000 C 97.933 82.000,98.270 82.370,98.406 82.799 C 98.470 83.001,98.581 83.167,98.653 83.167 C 98.724 83.167,98.918 83.467,99.083 83.833 C 99.249 84.200,99.448 84.500,99.525 84.500 C 99.603 84.500,99.667 84.650,99.667 84.833 C 99.667 85.017,99.742 85.167,99.833 85.167 C 99.925 85.167,100.000 85.279,100.000 85.417 C 100.000 85.725,103.312 85.788,103.615 85.485 C 103.745 85.355,103.827 85.355,103.908 85.485 C 104.096 85.791,107.333 85.726,107.333 85.417 C 107.333 85.279,107.405 85.167,107.492 85.167 C 107.580 85.167,107.701 84.904,107.761 84.583 L 107.870 84.000 109.685 84.000 C 111.468 84.000,111.500 84.007,111.500 84.383 C 111.500 84.594,111.594 84.971,111.708 85.220 L 111.917 85.673 113.651 85.628 C 115.156 85.589,115.391 85.545,115.428 85.292 C 115.451 85.131,115.402 85.000,115.319 85.000 C 115.235 85.000,115.167 84.827,115.167 84.615 C 115.167 84.404,115.057 84.085,114.922 83.907 C 114.787 83.729,114.675 83.382,114.672 83.135 C 114.669 82.888,114.592 82.640,114.500 82.583 C 114.408 82.527,114.333 82.303,114.333 82.085 C 114.333 81.868,114.221 81.578,114.083 81.440 C 113.946 81.303,113.833 80.965,113.833 80.688 C 113.833 80.412,113.758 80.140,113.667 80.083 C 113.575 80.027,113.500 79.806,113.500 79.594 C 113.500 79.381,113.388 79.115,113.252 79.002 C 113.115 78.888,113.043 78.731,113.092 78.653 C 113.141 78.574,113.065 78.286,112.923 78.013 C 112.782 77.740,112.667 77.374,112.667 77.201 C 112.667 76.913,112.393 76.209,111.989 75.461 C 111.904 75.301,111.833 75.013,111.833 74.821 C 111.833 73.959,108.319 73.297,107.700 74.043 C 107.463 74.329,107.005 75.672,107.002 76.092 C 107.001 76.280,106.929 76.505,106.843 76.592 C 106.757 76.679,106.647 76.969,106.599 77.236 C 106.551 77.503,106.434 77.799,106.339 77.894 C 106.244 77.989,106.167 78.235,106.167 78.440 C 106.167 78.646,106.092 78.860,106.000 78.917 C 105.908 78.973,105.833 79.231,105.833 79.489 C 105.833 79.748,105.721 80.053,105.583 80.167 C 105.446 80.281,105.333 80.586,105.333 80.844 C 105.333 81.102,105.258 81.360,105.167 81.417 C 105.075 81.473,105.000 81.734,105.000 81.996 C 105.000 82.258,104.921 82.499,104.825 82.531 C 104.661 82.585,104.425 83.300,104.218 84.370 C 103.996 85.517,103.524 85.295,102.722 83.667 C 102.564 83.346,102.337 83.023,102.217 82.950 C 102.098 82.877,102.000 82.705,102.000 82.569 C 102.000 82.433,101.890 82.153,101.754 81.947 C 101.524 81.595,101.549 81.529,102.171 80.869 C 102.535 80.482,102.833 80.060,102.833 79.930 C 102.833 79.801,102.912 79.668,103.008 79.636 C 103.298 79.540,103.349 77.290,103.074 76.758 C 102.941 76.504,102.833 76.210,102.832 76.106 C 102.830 75.832,101.687 74.667,101.420 74.667 C 101.296 74.667,101.169 74.591,101.138 74.498 C 101.107 74.406,100.919 74.299,100.719 74.260 C 100.519 74.221,100.205 74.110,100.022 74.012 C 99.660 73.818,94.632 73.757,94.444 73.944 M115.135 73.945 C 114.777 74.041,114.738 74.260,114.805 75.768 L 114.860 77.000 116.263 77.000 L 117.667 77.000 117.667 81.333 L 117.667 85.667 119.250 85.667 L 120.833 85.667 120.833 81.333 L 120.833 77.000 122.256 77.000 L 123.679 77.000 123.631 75.458 L 123.583 73.917 119.500 73.893 C 117.254 73.880,115.290 73.903,115.135 73.945 M125.111 73.944 C 125.050 74.006,125.000 76.669,125.000 79.864 L 125.000 85.673 128.792 85.628 L 132.583 85.583 132.583 84.083 L 132.583 82.583 130.375 82.537 L 128.167 82.490 128.167 81.995 L 128.167 81.500 129.958 81.497 C 132.215 81.494,132.170 81.526,132.218 79.871 C 132.265 78.263,132.381 78.339,129.875 78.336 L 128.167 78.333 128.167 77.667 L 128.167 77.000 130.417 77.000 L 132.667 77.000 132.667 75.589 C 132.667 74.365,132.624 74.156,132.344 74.006 C 131.990 73.816,125.296 73.759,125.111 73.944 M138.087 74.060 C 137.768 74.293,137.969 75.692,138.356 75.931 C 138.435 75.980,138.500 76.225,138.500 76.477 C 138.500 76.728,138.570 77.005,138.656 77.092 C 138.742 77.179,138.840 77.438,138.872 77.667 C 138.905 77.896,139.022 78.247,139.133 78.447 C 139.243 78.648,139.333 78.999,139.333 79.229 C 139.333 79.459,139.408 79.693,139.500 79.750 C 139.592 79.807,139.667 80.022,139.667 80.228 C 139.667 80.434,139.777 80.749,139.911 80.926 C 140.046 81.104,140.158 81.452,140.161 81.698 C 140.164 81.945,140.242 82.193,140.333 82.250 C 140.425 82.307,140.500 82.576,140.500 82.848 C 140.500 83.135,140.605 83.384,140.750 83.440 C 140.903 83.498,141.000 83.751,141.000 84.091 C 141.000 84.397,141.075 84.693,141.167 84.750 C 141.258 84.807,141.333 85.036,141.333 85.260 L 141.333 85.667 143.333 85.667 C 144.932 85.667,145.333 85.620,145.333 85.434 C 145.333 85.307,145.446 85.159,145.583 85.106 C 145.729 85.050,145.833 84.801,145.833 84.505 C 145.833 84.227,145.908 84.000,146.000 84.000 C 146.092 84.000,146.167 83.781,146.167 83.514 C 146.167 83.246,146.274 82.815,146.404 82.555 C 146.535 82.296,146.730 81.746,146.838 81.333 C 146.946 80.921,147.139 80.384,147.267 80.141 C 147.395 79.898,147.500 79.541,147.500 79.349 C 147.500 79.157,147.575 79.000,147.667 79.000 C 147.758 79.000,147.833 78.742,147.833 78.427 C 147.833 78.111,147.900 77.812,147.981 77.762 C 148.062 77.711,148.178 77.407,148.239 77.085 C 148.299 76.763,148.420 76.500,148.508 76.500 C 148.595 76.500,148.667 76.204,148.667 75.843 C 148.667 75.482,148.742 75.140,148.833 75.083 C 148.925 75.027,149.000 74.769,149.000 74.510 C 149.000 73.948,148.712 73.838,147.250 73.838 C 145.728 73.838,145.500 73.937,145.500 74.603 C 145.500 74.993,145.423 75.167,145.250 75.167 C 145.069 75.167,145.000 75.353,145.000 75.843 C 145.000 76.252,144.934 76.479,144.833 76.417 C 144.734 76.355,144.667 76.558,144.667 76.919 C 144.667 77.252,144.554 77.636,144.417 77.774 C 144.279 77.911,144.167 78.281,144.167 78.595 C 144.167 78.910,144.092 79.167,144.000 79.167 C 143.908 79.167,143.833 79.420,143.833 79.730 C 143.833 80.039,143.721 80.386,143.583 80.500 C 143.374 80.673,143.333 80.649,143.333 80.354 C 143.333 80.159,143.258 80.000,143.167 80.000 C 143.075 80.000,143.000 79.792,143.000 79.537 C 143.000 79.282,142.891 78.918,142.757 78.727 C 142.623 78.536,142.495 78.107,142.473 77.773 C 142.450 77.440,142.372 77.167,142.299 77.167 C 142.226 77.167,142.167 76.947,142.167 76.679 C 142.167 76.410,142.054 76.078,141.917 75.940 C 141.779 75.803,141.667 75.509,141.667 75.288 C 141.667 75.066,141.549 74.648,141.404 74.359 L 141.142 73.833 139.770 73.833 C 138.875 73.833,138.289 73.912,138.087 74.060 M150.290 73.945 C 150.015 74.020,149.999 74.405,150.040 79.804 L 150.083 85.583 153.833 85.583 L 157.583 85.583 157.583 84.083 L 157.583 82.583 155.375 82.537 L 153.167 82.490 153.167 81.995 L 153.167 81.500 155.167 81.500 C 156.652 81.500,157.168 81.446,157.173 81.292 C 157.176 81.177,157.194 80.483,157.213 79.750 L 157.246 78.417 155.207 78.370 L 153.167 78.323 153.167 77.662 L 153.167 77.000 155.423 77.000 L 157.679 77.000 157.631 75.458 L 157.583 73.917 154.083 73.890 C 152.158 73.876,150.451 73.900,150.290 73.945 M159.533 74.033 C 159.386 74.181,159.333 75.727,159.333 79.956 L 159.333 85.679 160.875 85.631 L 162.417 85.583 162.507 83.083 C 162.556 81.708,162.613 80.715,162.632 80.875 C 162.651 81.035,162.742 81.167,162.833 81.167 C 162.925 81.167,163.000 81.296,163.000 81.453 C 163.000 81.611,163.171 81.892,163.381 82.078 C 163.590 82.264,164.020 82.829,164.335 83.333 C 164.651 83.837,164.986 84.332,165.080 84.432 C 165.173 84.532,165.432 84.854,165.655 85.147 C 166.055 85.673,166.075 85.679,167.322 85.631 L 168.583 85.583 168.627 79.845 C 168.677 73.333,168.802 73.840,167.139 73.836 C 165.396 73.832,165.500 73.656,165.500 76.622 C 165.500 78.901,165.470 79.183,165.250 79.000 C 165.112 78.886,165.000 78.689,165.000 78.563 C 165.000 78.437,164.942 78.333,164.871 78.333 C 164.800 78.333,164.601 78.071,164.428 77.750 C 164.256 77.429,164.051 77.167,163.974 77.167 C 163.897 77.167,163.833 77.062,163.833 76.934 C 163.833 76.807,163.721 76.659,163.583 76.606 C 163.446 76.554,163.333 76.396,163.333 76.255 C 163.333 76.115,163.258 76.000,163.167 76.000 C 163.075 76.000,163.000 75.896,163.000 75.769 C 163.000 74.654,160.276 73.291,159.533 74.033 M169.804 74.139 C 169.648 74.362,169.608 74.816,169.667 75.685 L 169.750 76.917 171.122 76.965 L 172.494 77.013 172.539 81.298 L 172.583 85.583 174.250 85.583 L 175.917 85.583 175.961 81.298 L 176.006 77.013 177.378 76.965 L 178.750 76.917 178.799 75.609 C 178.869 73.740,179.169 73.857,174.251 73.839 C 170.286 73.825,170.012 73.843,169.804 74.139 M180.042 73.939 C 179.776 74.052,179.735 83.333,180.000 83.333 C 180.092 83.333,180.167 83.450,180.167 83.593 C 180.167 84.015,181.108 85.062,181.787 85.395 C 182.133 85.565,182.547 85.770,182.706 85.852 C 183.110 86.059,186.167 86.042,186.167 85.833 C 186.167 85.742,186.286 85.667,186.433 85.667 C 186.801 85.667,187.698 85.149,188.000 84.763 C 188.137 84.588,188.456 84.145,188.708 83.780 L 189.167 83.117 189.167 78.675 C 189.167 73.546,189.262 73.833,187.562 73.833 C 185.761 73.833,185.833 73.652,185.833 78.137 C 185.833 81.871,185.828 81.922,185.439 82.375 C 184.904 82.997,184.050 83.005,183.439 82.394 L 183.000 81.955 183.000 77.995 C 183.000 74.979,182.950 74.017,182.792 73.959 C 182.492 73.849,180.289 73.833,180.042 73.939 M191.204 74.093 C 190.834 74.352,190.833 74.361,190.833 79.746 C 190.833 86.257,190.665 85.667,192.518 85.667 L 194.000 85.667 194.000 83.822 C 194.000 82.004,194.005 81.978,194.375 82.030 C 194.581 82.059,194.824 82.252,194.915 82.458 C 195.005 82.665,195.136 82.833,195.206 82.833 C 195.276 82.833,195.333 82.974,195.333 83.146 C 195.333 83.318,195.446 83.553,195.583 83.667 C 195.721 83.781,195.833 83.977,195.833 84.104 C 195.833 84.230,195.908 84.333,196.000 84.333 C 196.092 84.333,196.167 84.437,196.167 84.563 C 196.167 84.689,196.278 84.885,196.415 84.998 C 196.551 85.112,196.627 85.263,196.582 85.335 C 196.436 85.572,197.009 85.667,198.597 85.667 L 200.167 85.667 200.164 85.208 C 200.162 84.940,199.990 84.588,199.747 84.358 C 199.520 84.142,199.333 83.823,199.333 83.649 C 199.333 83.475,199.258 83.333,199.167 83.333 C 199.075 83.333,199.000 83.187,199.000 83.008 C 199.000 82.830,198.906 82.623,198.792 82.550 C 198.434 82.321,198.096 81.607,198.311 81.535 C 198.415 81.501,198.500 81.366,198.500 81.236 C 198.500 81.106,198.580 81.000,198.679 81.000 C 198.936 81.000,199.333 80.565,199.333 80.282 C 199.333 80.149,199.446 79.947,199.583 79.833 C 199.773 79.676,199.833 79.248,199.833 78.058 C 199.833 76.818,199.781 76.469,199.583 76.394 C 199.446 76.341,199.333 76.150,199.333 75.970 C 199.333 75.616,198.967 75.167,198.679 75.167 C 198.580 75.167,198.500 75.071,198.500 74.953 C 198.500 74.764,197.693 74.314,197.250 74.256 C 197.158 74.244,196.920 74.144,196.719 74.034 C 196.139 73.714,191.676 73.762,191.204 74.093 M201.611 73.944 C 201.550 74.006,201.500 76.669,201.500 79.864 L 201.500 85.673 205.292 85.628 L 209.083 85.583 209.083 84.083 L 209.083 82.583 206.875 82.537 L 204.667 82.490 204.667 81.995 L 204.667 81.500 206.659 81.500 L 208.652 81.500 208.757 80.938 C 208.815 80.629,208.837 79.935,208.806 79.396 L 208.750 78.417 206.708 78.370 L 204.667 78.323 204.667 77.662 L 204.667 77.000 206.917 77.000 L 209.167 77.000 209.167 75.617 C 209.167 74.763,209.090 74.157,208.967 74.033 C 208.750 73.817,201.822 73.733,201.611 73.944 M231.851 74.061 C 231.716 74.224,231.675 75.908,231.706 79.936 L 231.750 85.583 233.333 85.583 L 234.917 85.583 234.961 79.936 C 235.012 73.384,235.131 73.833,233.333 73.833 C 232.443 73.833,231.982 73.904,231.851 74.061 M237.101 74.097 C 237.046 74.242,237.000 76.907,237.000 80.020 L 237.000 85.679 238.542 85.631 L 240.083 85.583 240.130 83.182 L 240.176 80.781 240.708 81.515 C 241.000 81.919,241.287 82.287,241.345 82.333 C 241.403 82.379,241.480 82.495,241.517 82.590 C 241.701 83.069,243.278 85.157,243.458 85.161 C 243.573 85.164,243.667 85.279,243.667 85.417 C 243.667 85.697,246.067 85.796,246.236 85.522 C 246.359 85.324,246.374 74.152,246.252 74.030 C 246.102 73.880,244.064 73.781,243.588 73.901 L 243.167 74.006 243.167 76.498 C 243.167 79.152,243.024 79.503,242.441 78.279 C 242.302 77.988,242.034 77.584,241.844 77.382 C 241.655 77.180,241.500 76.954,241.500 76.880 C 241.500 76.807,241.313 76.544,241.083 76.297 C 240.854 76.050,240.667 75.770,240.667 75.674 C 240.667 75.578,240.592 75.500,240.500 75.500 C 240.408 75.500,240.332 75.406,240.330 75.292 C 240.314 74.234,237.455 73.176,237.101 74.097 M248.542 74.005 L 248.167 74.156 248.167 79.825 L 248.167 85.494 248.542 85.588 C 248.749 85.640,249.518 85.660,250.251 85.633 L 251.583 85.583 251.673 83.083 C 251.723 81.708,251.779 80.721,251.798 80.890 C 251.839 81.243,253.474 83.500,253.690 83.500 C 253.769 83.500,253.833 83.636,253.833 83.802 C 253.833 83.968,254.002 84.284,254.208 84.504 C 254.415 84.724,254.660 85.057,254.754 85.244 C 254.933 85.599,256.576 85.809,257.453 85.589 L 257.833 85.494 257.833 79.863 C 257.833 73.353,257.974 73.833,256.070 73.833 C 254.271 73.833,254.295 73.797,254.315 76.538 L 254.332 78.750 253.823 78.133 C 253.543 77.793,253.309 77.456,253.303 77.383 C 253.297 77.310,253.114 77.085,252.896 76.883 C 252.678 76.681,252.500 76.448,252.500 76.366 C 252.500 76.283,252.313 76.013,252.083 75.766 C 251.854 75.518,251.667 75.275,251.667 75.224 C 251.667 74.252,249.769 73.512,248.542 74.005 M263.388 74.012 C 263.290 74.110,263.107 74.207,262.980 74.229 C 262.148 74.371,260.000 76.218,260.000 76.792 C 260.000 76.978,259.887 77.174,259.750 77.227 C 259.612 77.280,259.500 77.471,259.500 77.652 C 259.500 77.832,259.425 78.027,259.333 78.083 C 259.240 78.141,259.167 78.918,259.167 79.843 C 259.167 80.837,259.233 81.500,259.333 81.500 C 259.425 81.500,259.499 81.631,259.497 81.792 C 259.493 82.195,260.379 83.990,260.585 83.995 C 260.677 83.998,260.846 84.148,260.959 84.329 C 261.226 84.757,262.808 85.663,263.292 85.665 C 263.498 85.666,263.667 85.742,263.667 85.833 C 263.667 85.933,264.302 86.000,265.240 86.000 C 266.109 86.000,266.860 85.925,266.917 85.833 C 266.973 85.742,267.166 85.667,267.344 85.667 C 267.771 85.667,269.667 84.477,269.667 84.209 C 269.667 84.094,269.761 84.000,269.876 84.000 C 270.110 84.000,271.000 82.617,271.000 82.253 C 271.000 82.125,271.075 81.973,271.167 81.917 C 271.571 81.667,271.360 78.233,270.878 77.213 C 270.433 76.272,268.971 74.681,268.542 74.671 C 268.427 74.669,268.333 74.609,268.333 74.539 C 268.333 74.005,263.871 73.529,263.388 74.012 M271.708 73.944 C 271.473 74.038,271.418 75.167,271.648 75.167 C 271.730 75.167,271.832 75.410,271.874 75.708 C 271.951 76.247,272.574 78.154,272.854 78.706 C 272.934 78.865,273.000 79.216,273.000 79.486 C 273.000 79.756,273.112 80.089,273.250 80.226 C 273.387 80.364,273.500 80.665,273.500 80.895 C 273.500 81.125,273.575 81.360,273.667 81.417 C 273.758 81.473,273.833 81.697,273.833 81.915 C 273.833 82.132,273.946 82.422,274.083 82.560 C 274.221 82.697,274.333 83.035,274.333 83.312 C 274.333 83.588,274.408 83.860,274.500 83.917 C 274.592 83.973,274.667 84.205,274.667 84.432 C 274.667 85.496,275.015 85.667,277.186 85.667 L 279.167 85.667 279.167 85.167 C 279.167 84.892,279.242 84.667,279.333 84.667 C 279.425 84.667,279.500 84.451,279.500 84.187 C 279.500 83.923,279.612 83.614,279.750 83.500 C 279.887 83.386,280.000 83.077,280.000 82.813 C 280.000 82.549,280.059 82.333,280.131 82.333 C 280.203 82.333,280.280 82.100,280.302 81.814 C 280.324 81.528,280.452 81.137,280.587 80.944 C 280.723 80.750,280.833 80.426,280.833 80.223 C 280.833 80.019,280.908 79.807,281.000 79.750 C 281.092 79.693,281.167 79.431,281.167 79.167 C 281.167 78.902,281.242 78.640,281.333 78.583 C 281.425 78.527,281.500 78.354,281.501 78.198 C 281.502 78.043,281.614 77.702,281.751 77.439 C 281.888 77.177,282.000 76.787,282.000 76.574 C 282.000 76.361,282.075 76.140,282.167 76.083 C 282.258 76.027,282.333 75.722,282.333 75.407 C 282.333 75.091,282.408 74.833,282.500 74.833 C 282.753 74.833,282.699 74.234,282.426 74.008 C 281.948 73.611,279.260 73.847,279.197 74.292 C 279.167 74.498,279.074 74.667,278.988 74.667 C 278.903 74.667,278.833 74.959,278.833 75.316 C 278.833 75.738,278.746 75.998,278.583 76.060 C 278.439 76.116,278.333 76.365,278.333 76.652 C 278.333 76.924,278.258 77.193,278.167 77.250 C 278.075 77.307,278.000 77.579,278.000 77.855 C 278.000 78.131,277.887 78.470,277.750 78.607 C 277.612 78.745,277.500 79.114,277.500 79.429 C 277.500 79.743,277.425 80.000,277.333 80.000 C 277.242 80.000,277.176 80.056,277.186 80.125 C 277.197 80.194,277.197 80.387,277.186 80.554 C 277.150 81.119,276.667 80.415,276.667 79.795 C 276.667 79.486,276.598 79.162,276.514 79.075 C 276.430 78.988,276.322 78.663,276.275 78.353 C 276.227 78.043,276.109 77.709,276.011 77.611 C 275.913 77.513,275.833 77.228,275.833 76.977 C 275.833 76.725,275.758 76.473,275.667 76.417 C 275.575 76.360,275.500 76.107,275.500 75.855 C 275.500 75.603,275.390 75.251,275.255 75.074 C 275.121 74.896,275.008 74.589,275.005 74.393 C 274.998 73.886,272.646 73.565,271.708 73.944 M285.653 74.616 C 285.477 75.026,285.333 75.542,285.333 75.764 C 285.333 75.985,285.258 76.167,285.167 76.167 C 285.075 76.167,285.000 76.298,284.999 76.458 C 284.998 76.619,284.886 76.965,284.749 77.227 C 284.612 77.490,284.500 77.884,284.500 78.102 C 284.500 78.321,284.444 78.501,284.375 78.501 C 284.306 78.502,284.113 78.971,283.946 79.543 C 283.779 80.115,283.573 80.714,283.488 80.873 C 283.403 81.032,283.333 81.356,283.333 81.593 C 283.333 81.830,283.221 82.136,283.083 82.274 C 282.946 82.411,282.833 82.706,282.833 82.929 C 282.833 83.151,282.758 83.333,282.667 83.333 C 282.575 83.333,282.500 83.564,282.500 83.845 C 282.500 84.127,282.384 84.474,282.241 84.616 C 282.099 84.758,282.005 85.034,282.033 85.229 C 282.107 85.747,285.667 85.880,285.667 85.365 C 285.667 85.192,285.785 84.815,285.929 84.526 L 286.191 84.000 287.836 84.000 C 289.623 84.000,289.669 84.023,289.827 84.994 L 289.922 85.583 291.669 85.583 L 293.417 85.583 293.467 85.063 C 293.497 84.755,293.412 84.436,293.259 84.283 C 293.117 84.140,293.000 83.793,293.000 83.512 C 293.000 83.230,292.925 83.000,292.833 83.000 C 292.742 83.000,292.667 82.784,292.667 82.520 C 292.667 82.257,292.554 81.947,292.417 81.833 C 292.279 81.719,292.167 81.414,292.167 81.156 C 292.167 80.898,292.092 80.640,292.000 80.583 C 291.908 80.527,291.833 80.306,291.833 80.094 C 291.833 79.881,291.721 79.614,291.583 79.500 C 291.446 79.386,291.333 79.076,291.333 78.811 C 291.333 78.546,291.265 78.199,291.181 78.039 C 291.096 77.880,290.902 77.319,290.748 76.792 C 290.595 76.265,290.401 75.792,290.318 75.740 C 290.235 75.689,290.167 75.468,290.167 75.250 C 290.167 75.032,290.087 74.804,289.990 74.744 C 289.892 74.683,289.743 74.451,289.658 74.227 C 289.506 73.828,289.467 73.820,287.737 73.846 L 285.972 73.872 285.653 74.616 M293.255 74.102 C 293.045 74.312,292.997 74.648,293.035 75.644 L 293.083 76.917 294.542 76.965 L 296.000 77.013 296.000 81.346 L 296.000 85.679 297.542 85.631 L 299.083 85.583 299.128 81.292 L 299.172 77.000 300.586 77.000 L 302.000 77.000 302.000 75.518 C 302.000 74.320,301.949 74.016,301.736 73.934 C 301.069 73.678,293.530 73.827,293.255 74.102 M303.134 74.144 C 302.962 74.391,302.934 75.602,303.000 80.019 L 303.083 85.583 304.416 85.633 C 305.149 85.660,305.918 85.640,306.124 85.588 L 306.500 85.494 306.500 79.836 C 306.500 73.286,306.673 73.833,304.604 73.833 C 303.572 73.833,303.314 73.888,303.134 74.144 M312.097 73.978 C 312.047 74.058,311.784 74.168,311.512 74.223 C 310.672 74.391,308.926 76.010,308.427 77.083 C 308.257 77.450,308.054 77.880,307.975 78.039 C 307.742 78.515,307.808 81.232,308.068 81.855 C 308.197 82.164,308.317 82.492,308.335 82.583 C 308.352 82.675,308.434 82.731,308.517 82.708 C 308.599 82.685,308.667 82.764,308.667 82.883 C 308.667 83.193,309.059 83.997,309.211 83.999 C 309.282 83.999,309.582 84.244,309.878 84.542 C 310.461 85.128,311.480 85.667,312.006 85.667 C 312.186 85.667,312.333 85.742,312.333 85.833 C 312.333 85.933,312.969 86.000,313.907 86.000 C 314.776 86.000,315.526 85.925,315.583 85.833 C 315.640 85.742,315.860 85.667,316.073 85.667 C 316.285 85.667,316.553 85.554,316.667 85.417 C 316.781 85.279,316.941 85.167,317.023 85.167 C 317.305 85.167,318.329 84.416,318.331 84.208 C 318.332 84.094,318.432 84.000,318.553 84.000 C 318.794 84.000,319.542 82.779,319.624 82.250 C 319.653 82.067,319.749 81.892,319.838 81.861 C 320.042 81.791,320.055 78.000,319.852 78.000 C 319.770 78.000,319.657 77.751,319.600 77.446 C 319.543 77.141,319.347 76.732,319.165 76.536 C 318.982 76.341,318.829 76.121,318.823 76.049 C 318.818 75.976,318.480 75.654,318.073 75.333 C 317.665 75.012,317.239 74.672,317.124 74.577 C 316.378 73.956,312.403 73.482,312.097 73.978 M321.768 74.097 C 321.712 74.242,321.667 76.907,321.667 80.020 L 321.667 85.679 323.208 85.631 L 324.750 85.583 324.796 83.182 L 324.843 80.781 325.374 81.515 C 325.667 81.919,325.946 82.287,325.995 82.333 C 326.043 82.379,326.440 82.942,326.876 83.583 C 328.269 85.635,328.311 85.667,329.649 85.667 C 331.127 85.667,330.990 86.260,331.004 79.753 C 331.018 73.324,331.168 73.940,329.570 73.859 C 327.806 73.770,327.833 73.727,327.833 76.599 C 327.833 79.149,327.685 79.492,327.107 78.279 C 326.969 77.988,326.700 77.584,326.511 77.382 C 326.322 77.180,326.167 76.954,326.167 76.880 C 326.167 76.807,325.979 76.544,325.750 76.297 C 325.521 76.050,325.333 75.770,325.333 75.674 C 325.333 75.578,325.258 75.500,325.167 75.500 C 325.075 75.500,325.000 75.406,324.999 75.292 C 324.995 74.258,322.115 73.193,321.768 74.097 M219.899 76.304 C 220.027 76.512,219.819 77.167,219.624 77.167 C 219.412 77.167,219.012 76.655,219.005 76.375 C 218.999 76.145,219.763 76.085,219.899 76.304 M54.000 77.250 C 54.114 77.387,54.311 77.500,54.437 77.500 C 54.563 77.500,54.667 77.575,54.667 77.667 C 54.667 77.758,54.784 77.833,54.927 77.833 C 55.069 77.833,55.140 77.909,55.083 78.001 C 55.026 78.093,55.096 78.214,55.239 78.269 C 55.383 78.324,55.500 78.544,55.500 78.758 C 55.500 78.972,55.575 79.193,55.667 79.250 C 55.758 79.307,55.833 79.607,55.833 79.917 C 55.833 80.227,55.758 80.527,55.667 80.583 C 55.575 80.640,55.500 80.818,55.500 80.978 C 55.500 81.343,54.636 82.241,53.959 82.579 C 53.389 82.863,52.000 82.925,52.000 82.667 C 52.000 82.575,51.890 82.500,51.756 82.500 C 50.053 82.500,49.651 78.522,51.266 77.658 C 51.486 77.540,51.667 77.344,51.667 77.222 C 51.667 76.891,53.722 76.915,54.000 77.250 M65.667 77.236 C 65.667 77.366,65.759 77.503,65.871 77.540 C 66.697 77.816,65.776 79.167,64.762 79.167 L 64.000 79.167 64.000 78.083 L 64.000 77.000 64.833 77.000 C 65.441 77.000,65.667 77.064,65.667 77.236 M76.000 77.250 C 76.000 77.387,76.075 77.500,76.167 77.500 C 76.422 77.500,76.364 78.659,76.095 78.929 C 75.951 79.072,75.522 79.167,75.012 79.167 L 74.167 79.167 74.167 78.083 L 74.167 77.000 75.083 77.000 C 75.787 77.000,76.000 77.058,76.000 77.250 M87.894 77.250 C 87.946 77.387,88.110 77.500,88.257 77.500 C 88.566 77.500,89.000 77.889,89.000 78.167 C 89.000 78.271,89.110 78.467,89.245 78.602 C 89.736 79.093,89.450 81.102,88.800 81.724 C 88.497 82.013,88.269 82.306,88.292 82.375 C 88.315 82.444,88.146 82.500,87.917 82.500 C 87.688 82.500,87.500 82.575,87.500 82.667 C 87.500 82.758,87.167 82.833,86.760 82.833 C 86.353 82.833,85.973 82.758,85.917 82.667 C 85.860 82.575,85.711 82.500,85.586 82.500 C 85.379 82.500,84.413 81.651,84.298 81.369 C 84.272 81.303,84.194 81.269,84.125 81.292 C 83.868 81.377,83.987 78.718,84.250 78.500 C 84.387 78.386,84.500 78.221,84.500 78.134 C 84.500 78.047,84.607 77.869,84.738 77.738 C 84.869 77.607,85.047 77.500,85.134 77.500 C 85.221 77.500,85.386 77.387,85.500 77.250 C 85.644 77.076,86.027 77.000,86.753 77.000 C 87.528 77.000,87.822 77.065,87.894 77.250 M99.586 77.458 C 100.054 77.990,100.073 78.109,99.792 78.715 C 99.598 79.132,99.509 79.164,98.542 79.165 L 97.500 79.167 97.500 78.083 L 97.500 77.000 98.341 77.000 C 99.050 77.000,99.246 77.072,99.586 77.458 M196.167 77.250 C 196.167 77.387,196.242 77.500,196.333 77.500 C 196.589 77.500,196.531 78.659,196.262 78.929 C 196.108 79.083,195.667 79.167,195.012 79.167 L 194.000 79.167 194.000 78.083 L 194.000 77.000 195.083 77.000 C 195.935 77.000,196.167 77.053,196.167 77.250 M266.394 77.250 C 266.446 77.387,266.570 77.500,266.669 77.500 C 266.931 77.500,267.608 78.220,267.741 78.639 C 267.804 78.838,267.926 79.000,268.011 79.000 C 268.279 79.000,268.195 80.769,267.917 81.000 C 267.779 81.114,267.667 81.294,267.667 81.400 C 267.667 81.506,267.517 81.701,267.333 81.833 C 267.150 81.965,267.000 82.170,267.000 82.287 C 267.000 82.404,266.813 82.500,266.583 82.500 C 266.354 82.500,266.167 82.575,266.167 82.667 C 266.167 82.758,265.834 82.833,265.427 82.833 C 265.019 82.833,264.640 82.758,264.583 82.667 C 264.527 82.575,264.349 82.500,264.188 82.500 C 263.802 82.500,262.833 81.541,262.833 81.159 C 262.833 80.993,262.721 80.745,262.583 80.607 C 262.446 80.470,262.333 80.136,262.333 79.866 C 262.333 79.595,262.446 79.281,262.583 79.167 C 262.721 79.053,262.833 78.837,262.834 78.688 C 262.834 78.359,263.472 77.601,263.875 77.452 C 264.035 77.393,264.167 77.266,264.167 77.172 C 264.167 76.880,266.280 76.954,266.394 77.250 M315.060 77.250 C 315.113 77.387,315.241 77.500,315.345 77.500 C 315.604 77.500,316.500 78.483,316.500 78.768 C 316.500 78.895,316.575 79.000,316.667 79.000 C 316.950 79.000,316.872 80.783,316.583 80.894 C 316.446 80.946,316.333 81.125,316.333 81.291 C 316.333 81.457,316.183 81.701,316.000 81.833 C 315.817 81.965,315.667 82.170,315.667 82.287 C 315.667 82.404,315.479 82.500,315.250 82.500 C 315.021 82.500,314.833 82.575,314.833 82.667 C 314.833 82.758,314.500 82.833,314.093 82.833 C 313.686 82.833,313.307 82.758,313.250 82.667 C 313.193 82.575,312.926 82.500,312.657 82.500 C 312.387 82.500,312.167 82.422,312.167 82.326 C 312.167 82.231,312.017 81.992,311.833 81.795 C 311.650 81.598,311.500 81.310,311.500 81.156 C 311.500 81.001,311.387 80.781,311.250 80.667 C 311.106 80.547,311.000 80.183,311.000 79.808 C 311.000 79.382,311.087 79.123,311.250 79.060 C 311.387 79.008,311.500 78.780,311.500 78.556 C 311.500 78.326,311.573 78.192,311.667 78.250 C 311.758 78.307,311.833 78.268,311.833 78.165 C 311.833 77.927,312.162 77.598,312.542 77.454 C 312.702 77.393,312.833 77.266,312.833 77.172 C 312.833 76.880,314.947 76.954,315.060 77.250 M288.014 79.242 C 288.098 79.329,288.167 79.577,288.167 79.794 C 288.167 80.011,288.244 80.334,288.339 80.511 C 288.496 80.804,288.453 80.833,287.873 80.833 C 287.240 80.833,287.234 80.827,287.302 80.250 C 287.339 79.929,287.437 79.667,287.518 79.667 C 287.600 79.667,287.677 79.348,287.689 78.958 C 287.704 78.505,287.739 78.400,287.787 78.667 C 287.828 78.896,287.930 79.155,288.014 79.242 M109.833 79.417 C 109.833 79.623,109.946 79.886,110.083 80.000 C 110.595 80.425,110.391 80.833,109.667 80.833 C 109.005 80.833,108.698 80.373,109.167 80.083 C 109.258 80.027,109.333 79.676,109.333 79.303 C 109.333 78.720,109.368 78.655,109.583 78.833 C 109.721 78.947,109.833 79.210,109.833 79.417 M222.000 79.240 C 222.000 79.506,221.698 79.753,221.552 79.607 C 221.415 79.470,221.629 79.000,221.828 79.000 C 221.923 79.000,222.000 79.108,222.000 79.240 M219.213 81.335 C 219.371 81.520,219.500 81.732,219.500 81.807 C 219.500 81.882,219.687 82.044,219.915 82.166 L 220.330 82.388 219.957 82.643 C 219.751 82.783,219.543 82.956,219.493 83.028 C 219.443 83.100,219.224 83.179,219.005 83.204 C 218.528 83.259,217.706 82.227,217.997 81.937 C 218.090 81.843,218.167 81.637,218.167 81.479 C 218.167 81.234,218.310 81.135,218.838 81.019 C 218.886 81.009,219.055 81.151,219.213 81.335 " stroke="none" fill="#7c848c" fill-rule="evenodd"></path><path id="path2" d="M115.606 24.583 C 115.541 24.755,115.273 24.833,114.755 24.833 C 114.340 24.833,114.000 24.908,114.000 25.000 C 114.000 25.092,113.742 25.167,113.427 25.167 C 113.111 25.167,112.807 25.242,112.750 25.333 C 112.693 25.425,112.499 25.500,112.318 25.500 C 112.137 25.500,111.946 25.613,111.894 25.750 C 111.834 25.904,111.581 26.000,111.232 26.000 C 110.921 26.000,110.667 26.075,110.667 26.167 C 110.667 26.258,110.558 26.333,110.424 26.333 C 110.291 26.333,109.994 26.521,109.765 26.750 C 109.536 26.979,109.195 27.167,109.008 27.167 C 108.816 27.167,108.667 27.276,108.667 27.417 C 108.667 27.554,108.554 27.667,108.417 27.667 C 108.279 27.667,108.167 27.742,108.167 27.833 C 108.167 27.925,108.027 28.000,107.857 28.000 C 107.686 28.000,107.406 28.188,107.234 28.417 C 107.062 28.646,106.826 28.833,106.710 28.833 C 106.595 28.833,106.500 28.912,106.500 29.008 C 106.500 29.234,105.734 30.000,105.508 30.000 C 105.412 30.000,105.333 30.080,105.333 30.179 C 105.333 30.409,104.909 30.833,104.679 30.833 C 104.580 30.833,104.500 30.928,104.500 31.044 C 104.500 31.160,104.313 31.395,104.083 31.567 C 103.854 31.739,103.667 32.020,103.667 32.190 C 103.667 32.361,103.592 32.500,103.500 32.500 C 103.408 32.500,103.333 32.612,103.333 32.750 C 103.333 32.887,103.221 33.000,103.083 33.000 C 102.943 33.000,102.833 33.149,102.833 33.341 C 102.833 33.528,102.646 33.869,102.417 34.098 C 102.188 34.328,102.000 34.624,102.000 34.758 C 102.000 34.891,101.925 35.000,101.833 35.000 C 101.742 35.000,101.667 35.262,101.667 35.583 C 101.667 35.904,101.592 36.167,101.500 36.167 C 101.408 36.167,101.333 36.346,101.333 36.566 C 101.333 36.785,101.221 37.008,101.083 37.060 C 100.926 37.120,100.833 37.375,100.833 37.745 C 100.833 38.068,100.758 38.333,100.667 38.333 C 100.575 38.333,100.500 38.673,100.500 39.089 C 100.500 39.606,100.421 39.874,100.250 39.940 C 99.874 40.084,99.874 48.500,100.250 48.500 C 100.439 48.500,100.500 48.704,100.500 49.333 C 100.500 49.792,100.575 50.167,100.667 50.167 C 100.758 50.167,100.833 50.504,100.833 50.917 C 100.833 51.472,100.898 51.667,101.083 51.667 C 101.239 51.667,101.333 51.824,101.333 52.083 C 101.333 52.313,101.408 52.500,101.500 52.500 C 101.592 52.500,101.667 52.688,101.667 52.917 C 101.667 53.146,101.742 53.333,101.833 53.333 C 101.925 53.333,102.000 53.521,102.000 53.750 C 102.000 54.009,102.094 54.167,102.250 54.167 C 102.406 54.167,102.500 54.324,102.500 54.583 C 102.500 54.813,102.575 55.000,102.667 55.000 C 102.758 55.000,102.833 55.139,102.833 55.310 C 102.833 55.480,103.021 55.761,103.250 55.933 C 103.479 56.105,103.667 56.340,103.667 56.456 C 103.667 56.572,103.779 56.667,103.917 56.667 C 104.054 56.667,104.169 56.798,104.172 56.958 C 104.179 57.319,104.554 57.833,104.810 57.833 C 104.915 57.833,105.000 57.914,105.000 58.012 C 105.000 58.243,105.424 58.667,105.655 58.667 C 105.753 58.667,105.833 58.747,105.833 58.845 C 105.833 59.057,106.250 59.500,106.449 59.500 C 106.525 59.500,106.728 59.688,106.900 59.917 C 107.073 60.146,107.335 60.333,107.484 60.333 C 107.633 60.333,107.895 60.521,108.067 60.750 C 108.239 60.979,108.520 61.167,108.690 61.167 C 108.861 61.167,109.000 61.242,109.000 61.333 C 109.000 61.425,109.104 61.500,109.232 61.500 C 109.360 61.500,109.508 61.612,109.560 61.750 C 109.613 61.887,109.809 62.000,109.995 62.000 C 110.181 62.000,110.333 62.075,110.333 62.167 C 110.333 62.258,110.475 62.333,110.649 62.333 C 110.822 62.333,111.008 62.446,111.060 62.583 C 111.113 62.721,111.304 62.833,111.485 62.833 C 111.666 62.833,111.860 62.908,111.917 63.000 C 111.973 63.092,112.270 63.167,112.575 63.167 C 112.916 63.167,113.168 63.264,113.227 63.417 C 113.290 63.582,113.551 63.667,113.995 63.667 C 114.364 63.667,114.667 63.742,114.667 63.833 C 114.667 63.927,115.139 64.000,115.750 64.000 C 116.361 64.000,116.833 64.073,116.833 64.167 C 116.833 64.272,118.028 64.333,120.083 64.333 C 122.139 64.333,123.333 64.272,123.333 64.167 C 123.333 64.075,123.543 64.000,123.800 64.000 C 124.057 64.000,124.368 63.906,124.491 63.792 C 124.671 63.625,124.692 63.625,124.598 63.792 C 124.517 63.935,124.614 64.000,124.907 64.000 C 125.141 64.000,125.333 63.925,125.333 63.833 C 125.333 63.742,125.598 63.667,125.922 63.667 C 126.291 63.667,126.546 63.574,126.606 63.417 C 126.666 63.262,126.919 63.167,127.268 63.167 C 127.579 63.167,127.833 63.092,127.833 63.000 C 127.833 62.908,128.015 62.833,128.238 62.833 C 128.461 62.833,128.755 62.721,128.893 62.583 C 129.030 62.446,129.271 62.333,129.427 62.333 C 129.584 62.333,129.886 62.146,130.098 61.917 C 130.310 61.687,130.581 61.498,130.700 61.495 C 130.999 61.487,131.500 61.087,131.500 60.857 C 131.500 60.752,131.655 60.667,131.845 60.667 C 132.214 60.667,132.667 60.306,132.667 60.012 C 132.667 59.914,132.779 59.833,132.917 59.833 C 133.054 59.833,133.167 59.758,133.167 59.667 C 133.167 59.575,133.288 59.500,133.437 59.500 C 133.764 59.500,135.167 58.072,135.167 57.738 C 135.167 57.607,135.242 57.500,135.333 57.500 C 135.425 57.500,135.500 57.387,135.500 57.250 C 135.500 57.112,135.580 57.000,135.679 57.000 C 135.909 57.000,136.333 56.576,136.333 56.345 C 136.333 56.247,136.446 56.167,136.583 56.167 C 136.739 56.167,136.833 56.009,136.833 55.750 C 136.833 55.521,136.908 55.333,137.000 55.333 C 137.092 55.333,137.167 55.217,137.167 55.075 C 137.167 54.933,137.354 54.644,137.583 54.431 C 137.813 54.219,138.000 53.893,138.000 53.707 C 138.000 53.521,138.112 53.326,138.250 53.273 C 138.396 53.217,138.500 52.967,138.500 52.672 C 138.500 52.394,138.575 52.167,138.667 52.167 C 138.758 52.167,138.833 52.011,138.833 51.821 C 138.833 51.632,138.946 51.364,139.083 51.226 C 139.221 51.089,139.333 50.682,139.333 50.321 C 139.333 49.961,139.408 49.667,139.500 49.667 C 139.593 49.667,139.667 49.222,139.667 48.667 C 139.667 48.096,139.740 47.667,139.837 47.667 C 140.057 47.667,140.042 40.879,139.822 40.743 C 139.737 40.690,139.667 40.201,139.667 39.657 C 139.667 39.108,139.592 38.667,139.500 38.667 C 139.408 38.667,139.333 38.439,139.333 38.161 C 139.333 37.866,139.229 37.616,139.083 37.560 C 138.930 37.502,138.833 37.249,138.833 36.909 C 138.833 36.603,138.758 36.307,138.667 36.250 C 138.575 36.193,138.500 35.999,138.500 35.818 C 138.500 35.637,138.387 35.446,138.250 35.394 C 138.112 35.341,138.000 35.160,138.000 34.992 C 138.000 34.824,137.925 34.640,137.833 34.583 C 137.742 34.527,137.667 34.335,137.667 34.157 C 137.667 33.979,137.554 33.833,137.417 33.833 C 137.279 33.833,137.167 33.721,137.167 33.583 C 137.167 33.446,137.092 33.333,137.000 33.333 C 136.908 33.333,136.833 33.146,136.833 32.917 C 136.833 32.607,136.745 32.500,136.490 32.500 C 136.301 32.500,136.193 32.425,136.250 32.333 C 136.307 32.242,136.274 32.167,136.177 32.167 C 136.079 32.167,136.000 32.046,136.000 31.898 C 136.000 31.751,135.831 31.445,135.625 31.218 C 134.425 29.899,133.842 29.333,133.682 29.333 C 133.582 29.333,133.500 29.248,133.500 29.143 C 133.500 28.887,132.985 28.512,132.625 28.505 C 132.465 28.502,132.333 28.387,132.333 28.250 C 132.333 28.113,132.248 28.000,132.144 28.000 C 132.040 28.000,131.785 27.802,131.577 27.560 C 131.320 27.260,131.091 27.148,130.862 27.207 C 130.622 27.270,130.550 27.229,130.614 27.064 C 130.675 26.904,130.570 26.833,130.268 26.833 C 129.993 26.833,129.833 26.742,129.833 26.583 C 129.833 26.428,129.676 26.333,129.417 26.333 C 129.188 26.333,129.000 26.258,129.000 26.167 C 129.000 26.075,128.813 26.000,128.583 26.000 C 128.324 26.000,128.167 25.906,128.167 25.750 C 128.167 25.594,128.009 25.500,127.750 25.500 C 127.521 25.500,127.333 25.425,127.333 25.333 C 127.333 25.242,126.996 25.167,126.583 25.167 C 126.171 25.167,125.833 25.092,125.833 25.000 C 125.833 24.908,125.458 24.833,125.000 24.833 C 124.370 24.833,124.167 24.772,124.167 24.583 C 124.167 24.368,123.585 24.333,119.934 24.333 C 116.326 24.333,115.688 24.370,115.606 24.583 M152.394 24.583 C 152.341 24.721,152.171 24.833,152.016 24.833 C 151.860 24.833,151.632 24.927,151.509 25.042 C 151.329 25.208,151.308 25.208,151.402 25.042 C 151.467 24.927,151.440 24.833,151.343 24.833 C 151.246 24.833,151.167 24.908,151.167 25.000 C 151.167 25.092,150.904 25.167,150.583 25.167 C 150.262 25.167,150.000 25.242,150.000 25.333 C 150.000 25.425,149.813 25.500,149.583 25.500 C 149.324 25.500,149.167 25.594,149.167 25.750 C 149.167 25.894,149.016 26.000,148.811 26.000 C 148.615 26.000,148.281 26.188,148.069 26.417 C 147.856 26.646,147.567 26.833,147.425 26.833 C 147.283 26.833,147.167 26.908,147.167 27.000 C 147.167 27.092,147.054 27.167,146.917 27.167 C 146.779 27.167,146.667 27.266,146.667 27.389 C 146.667 27.511,146.479 27.711,146.250 27.833 C 146.021 27.956,145.833 28.138,145.833 28.239 C 145.833 28.339,145.646 28.562,145.417 28.734 C 145.188 28.906,145.000 29.159,145.000 29.296 C 145.000 29.433,144.813 29.719,144.583 29.931 C 144.354 30.144,144.167 30.471,144.167 30.659 C 144.167 30.846,144.092 31.000,144.000 31.000 C 143.908 31.000,143.833 31.262,143.833 31.583 C 143.833 31.991,143.758 32.167,143.583 32.167 C 143.394 32.167,143.333 32.370,143.333 33.000 C 143.333 33.458,143.258 33.833,143.167 33.833 C 143.064 33.833,143.000 34.667,143.000 36.000 C 143.000 37.333,143.064 38.167,143.167 38.167 C 143.259 38.167,143.333 38.613,143.333 39.172 C 143.333 39.912,143.399 40.202,143.583 40.273 C 143.721 40.326,143.833 40.548,143.833 40.768 C 143.833 40.987,143.908 41.167,144.000 41.167 C 144.092 41.167,144.167 41.317,144.167 41.500 C 144.167 41.685,144.278 41.833,144.417 41.833 C 144.572 41.833,144.667 41.991,144.667 42.250 C 144.667 42.479,144.742 42.667,144.833 42.667 C 144.925 42.667,145.000 42.779,145.000 42.917 C 145.000 43.054,145.080 43.167,145.179 43.167 C 145.373 43.167,145.833 43.577,145.833 43.750 C 145.833 43.923,146.294 44.333,146.488 44.333 C 146.586 44.333,146.667 44.446,146.667 44.583 C 146.667 44.721,146.779 44.833,146.917 44.833 C 147.054 44.833,147.167 44.908,147.167 45.000 C 147.167 45.092,147.283 45.167,147.425 45.167 C 147.567 45.167,147.856 45.354,148.069 45.583 C 148.281 45.813,148.615 46.000,148.811 46.000 C 149.007 46.000,149.167 46.075,149.167 46.167 C 149.167 46.258,149.354 46.333,149.583 46.333 C 149.843 46.333,150.000 46.428,150.000 46.583 C 150.000 46.758,150.176 46.833,150.583 46.833 C 150.904 46.833,151.167 46.908,151.167 47.000 C 151.167 47.092,151.346 47.167,151.566 47.167 C 151.785 47.167,152.008 47.279,152.060 47.417 C 152.126 47.588,152.394 47.667,152.911 47.667 C 153.327 47.667,153.667 47.742,153.667 47.833 C 153.667 47.925,153.929 48.000,154.250 48.000 C 154.657 48.000,154.833 48.075,154.833 48.250 C 154.833 48.439,155.037 48.500,155.667 48.500 C 156.125 48.500,156.500 48.575,156.500 48.667 C 156.500 48.758,156.754 48.833,157.066 48.833 C 157.414 48.833,157.668 48.929,157.727 49.083 C 157.787 49.240,158.042 49.333,158.411 49.333 C 158.735 49.333,159.000 49.408,159.000 49.500 C 159.000 49.592,159.142 49.667,159.316 49.667 C 159.489 49.667,159.674 49.779,159.727 49.917 C 159.780 50.054,159.975 50.167,160.161 50.167 C 160.348 50.167,160.500 50.242,160.500 50.333 C 160.500 50.425,160.580 50.500,160.679 50.500 C 160.909 50.500,161.333 50.924,161.333 51.155 C 161.333 51.253,161.446 51.333,161.583 51.333 C 161.739 51.333,161.833 51.491,161.833 51.750 C 161.833 51.979,161.908 52.167,162.000 52.167 C 162.092 52.167,162.167 52.279,162.167 52.417 C 162.167 52.554,162.092 52.667,162.000 52.667 C 161.908 52.667,161.833 52.929,161.833 53.250 C 161.833 53.657,161.758 53.833,161.583 53.833 C 161.446 53.833,161.333 53.908,161.333 54.000 C 161.333 54.092,161.181 54.167,160.995 54.167 C 160.809 54.167,160.613 54.279,160.560 54.417 C 160.508 54.554,160.285 54.667,160.066 54.667 C 159.846 54.667,159.667 54.742,159.667 54.833 C 159.667 54.937,158.750 55.000,157.250 55.000 C 155.750 55.000,154.833 54.937,154.833 54.833 C 154.833 54.742,154.654 54.667,154.434 54.667 C 154.215 54.667,153.992 54.554,153.940 54.417 C 153.887 54.279,153.691 54.167,153.505 54.167 C 153.319 54.167,153.167 54.092,153.167 54.000 C 153.167 53.908,152.979 53.833,152.750 53.833 C 152.521 53.833,152.333 53.753,152.333 53.655 C 152.333 53.424,151.909 53.000,151.679 53.000 C 151.580 53.000,151.500 52.920,151.500 52.821 C 151.500 52.591,151.076 52.167,150.845 52.167 C 150.747 52.167,150.667 51.979,150.667 51.750 C 150.667 51.521,150.597 51.333,150.512 51.333 C 150.426 51.333,150.333 51.165,150.303 50.958 C 150.269 50.717,150.116 50.564,149.875 50.530 C 149.669 50.501,149.500 50.407,149.500 50.322 C 149.500 50.236,149.237 50.167,148.917 50.167 C 148.596 50.167,148.333 50.242,148.333 50.333 C 148.333 50.425,148.146 50.500,147.917 50.500 C 147.657 50.500,147.500 50.594,147.500 50.750 C 147.500 50.894,147.349 51.000,147.144 51.000 C 146.948 51.000,146.614 51.188,146.402 51.417 C 146.190 51.646,145.900 51.833,145.758 51.833 C 145.616 51.833,145.500 51.908,145.500 52.000 C 145.500 52.092,145.313 52.167,145.083 52.167 C 144.854 52.167,144.667 52.242,144.667 52.333 C 144.667 52.425,144.554 52.500,144.417 52.500 C 144.279 52.500,144.167 52.612,144.167 52.750 C 144.167 52.906,144.009 53.000,143.750 53.000 C 143.521 53.000,143.333 53.075,143.333 53.167 C 143.333 53.258,143.181 53.333,142.995 53.333 C 142.809 53.333,142.613 53.446,142.560 53.583 C 142.508 53.721,142.330 53.833,142.167 53.833 C 141.626 53.833,141.398 55.907,141.917 56.106 C 142.054 56.159,142.167 56.382,142.167 56.601 C 142.167 56.821,142.234 57.000,142.315 57.000 C 142.397 57.000,142.511 57.188,142.568 57.417 C 142.626 57.646,142.747 57.833,142.837 57.833 C 142.926 57.833,143.000 57.914,143.000 58.012 C 143.000 58.243,143.424 58.667,143.655 58.667 C 143.753 58.667,143.833 58.822,143.833 59.012 C 143.833 59.381,144.194 59.833,144.488 59.833 C 144.586 59.833,144.667 59.914,144.667 60.012 C 144.667 60.306,145.119 60.667,145.488 60.667 C 145.678 60.667,145.833 60.747,145.833 60.845 C 145.833 61.076,146.257 61.500,146.488 61.500 C 146.586 61.500,146.667 61.612,146.667 61.750 C 146.667 61.906,146.824 62.000,147.083 62.000 C 147.313 62.000,147.500 62.075,147.500 62.167 C 147.500 62.258,147.688 62.333,147.917 62.333 C 148.176 62.333,148.333 62.428,148.333 62.583 C 148.333 62.739,148.491 62.833,148.750 62.833 C 148.979 62.833,149.167 62.908,149.167 63.000 C 149.167 63.092,149.322 63.167,149.512 63.167 C 149.702 63.167,149.970 63.279,150.107 63.417 C 150.245 63.554,150.614 63.667,150.929 63.667 C 151.243 63.667,151.500 63.742,151.500 63.833 C 151.500 63.927,151.972 64.000,152.583 64.000 C 153.194 64.000,153.667 64.073,153.667 64.167 C 153.667 64.272,154.917 64.333,157.083 64.333 C 159.250 64.333,160.500 64.272,160.500 64.167 C 160.500 64.074,160.944 64.000,161.500 64.000 C 162.056 64.000,162.500 63.926,162.500 63.833 C 162.500 63.742,162.765 63.667,163.089 63.667 C 163.458 63.667,163.713 63.574,163.773 63.417 C 163.832 63.262,164.086 63.167,164.434 63.167 C 164.746 63.167,165.000 63.100,165.000 63.018 C 165.000 62.936,165.188 62.822,165.417 62.765 C 165.646 62.707,165.833 62.587,165.833 62.497 C 165.833 62.407,165.946 62.333,166.083 62.333 C 166.221 62.333,166.333 62.258,166.333 62.167 C 166.333 62.075,166.483 62.000,166.667 62.000 C 166.852 62.000,167.000 61.889,167.000 61.750 C 167.000 61.612,167.080 61.500,167.179 61.500 C 167.409 61.500,167.833 61.076,167.833 60.845 C 167.833 60.747,167.914 60.667,168.012 60.667 C 168.248 60.667,168.544 60.347,168.783 59.833 C 168.890 59.604,168.983 59.518,168.989 59.643 C 169.003 59.936,170.000 58.875,170.000 58.566 C 170.000 58.438,170.075 58.333,170.167 58.333 C 170.258 58.333,170.333 58.154,170.333 57.934 C 170.333 57.715,170.446 57.492,170.583 57.440 C 170.721 57.387,170.833 57.196,170.833 57.015 C 170.833 56.834,170.908 56.640,171.000 56.583 C 171.092 56.527,171.167 56.072,171.167 55.573 C 171.167 55.075,171.242 54.667,171.333 54.667 C 171.436 54.667,171.500 53.806,171.500 52.417 C 171.500 51.028,171.436 50.167,171.333 50.167 C 171.242 50.167,171.167 49.792,171.167 49.333 C 171.167 48.875,171.092 48.500,171.000 48.500 C 170.908 48.500,170.833 48.273,170.833 47.995 C 170.833 47.699,170.729 47.450,170.583 47.394 C 170.446 47.341,170.333 47.118,170.333 46.899 C 170.333 46.679,170.258 46.500,170.167 46.500 C 170.075 46.500,170.000 46.387,170.000 46.250 C 170.000 46.112,169.887 46.000,169.750 46.000 C 169.612 46.000,169.500 45.862,169.500 45.692 C 169.500 45.292,168.914 44.764,168.651 44.926 C 168.525 45.004,168.492 44.982,168.563 44.867 C 168.716 44.619,168.168 44.000,167.796 44.000 C 167.633 44.000,167.500 43.887,167.500 43.750 C 167.500 43.612,167.387 43.500,167.250 43.500 C 167.112 43.500,167.000 43.425,167.000 43.333 C 167.000 43.242,166.850 43.167,166.667 43.167 C 166.483 43.167,166.333 43.092,166.333 43.000 C 166.333 42.908,166.146 42.833,165.917 42.833 C 165.657 42.833,165.500 42.739,165.500 42.583 C 165.500 42.428,165.343 42.333,165.083 42.333 C 164.854 42.333,164.667 42.258,164.667 42.167 C 164.667 42.075,164.479 42.000,164.250 42.000 C 163.991 42.000,163.833 41.906,163.833 41.750 C 163.833 41.569,163.648 41.500,163.167 41.500 C 162.800 41.500,162.500 41.425,162.500 41.333 C 162.500 41.242,162.237 41.167,161.917 41.167 C 161.509 41.167,161.333 41.091,161.333 40.917 C 161.333 40.742,161.157 40.667,160.750 40.667 C 160.429 40.667,160.167 40.592,160.167 40.500 C 160.167 40.408,159.867 40.333,159.500 40.333 C 159.019 40.333,158.833 40.264,158.833 40.083 C 158.833 39.909,158.657 39.833,158.250 39.833 C 157.929 39.833,157.667 39.758,157.667 39.667 C 157.667 39.575,157.412 39.500,157.101 39.500 C 156.752 39.500,156.499 39.404,156.440 39.250 C 156.387 39.112,156.191 39.000,156.005 39.000 C 155.819 39.000,155.667 38.925,155.667 38.833 C 155.667 38.742,155.479 38.667,155.250 38.667 C 155.021 38.667,154.833 38.592,154.833 38.500 C 154.833 38.408,154.646 38.333,154.417 38.333 C 154.157 38.333,154.000 38.239,154.000 38.083 C 154.000 37.946,153.920 37.833,153.821 37.833 C 153.591 37.833,153.167 37.409,153.167 37.179 C 153.167 37.080,153.092 37.000,153.000 37.000 C 152.908 37.000,152.833 36.854,152.833 36.675 C 152.833 36.496,152.702 36.271,152.542 36.175 C 152.264 36.008,152.264 35.992,152.542 35.825 C 152.702 35.729,152.833 35.504,152.833 35.325 C 152.833 35.146,152.908 35.000,153.000 35.000 C 153.092 35.000,153.167 34.920,153.167 34.821 C 153.167 34.591,153.591 34.167,153.821 34.167 C 153.920 34.167,154.000 34.054,154.000 33.917 C 154.000 33.742,154.176 33.667,154.583 33.667 C 154.904 33.667,155.167 33.592,155.167 33.500 C 155.167 33.406,155.639 33.333,156.250 33.333 C 156.861 33.333,157.333 33.406,157.333 33.500 C 157.333 33.592,157.588 33.667,157.899 33.667 C 158.248 33.667,158.501 33.762,158.560 33.917 C 158.613 34.054,158.809 34.167,158.995 34.167 C 159.181 34.167,159.333 34.242,159.333 34.333 C 159.333 34.425,159.521 34.500,159.750 34.500 C 159.979 34.500,160.167 34.580,160.167 34.679 C 160.167 34.909,160.591 35.333,160.821 35.333 C 160.920 35.333,161.000 35.446,161.000 35.583 C 161.000 35.721,161.075 35.833,161.167 35.833 C 161.258 35.833,161.333 35.983,161.333 36.167 C 161.333 36.352,161.444 36.500,161.583 36.500 C 161.721 36.500,161.833 36.580,161.833 36.679 C 161.833 37.098,162.338 37.333,163.238 37.333 C 163.749 37.333,164.167 37.258,164.167 37.167 C 164.167 37.075,164.327 37.000,164.523 37.000 C 164.718 37.000,165.052 36.813,165.265 36.583 C 165.477 36.354,165.804 36.167,165.992 36.167 C 166.180 36.167,166.333 36.092,166.333 36.000 C 166.333 35.908,166.448 35.833,166.589 35.833 C 166.729 35.833,166.887 35.721,166.940 35.583 C 166.992 35.446,167.140 35.333,167.268 35.333 C 167.396 35.333,167.500 35.258,167.500 35.167 C 167.500 35.075,167.688 35.000,167.917 35.000 C 168.176 35.000,168.333 34.906,168.333 34.750 C 168.333 34.594,168.491 34.500,168.750 34.500 C 168.979 34.500,169.167 34.425,169.167 34.333 C 169.167 34.242,169.315 34.167,169.497 34.167 C 169.710 34.167,169.864 34.019,169.932 33.750 C 169.989 33.521,170.103 33.333,170.185 33.333 C 170.266 33.333,170.333 33.071,170.333 32.750 C 170.333 32.429,170.266 32.167,170.185 32.167 C 170.103 32.167,169.989 31.979,169.932 31.750 C 169.874 31.521,169.753 31.333,169.663 31.333 C 169.574 31.333,169.500 31.221,169.500 31.083 C 169.500 30.946,169.425 30.833,169.333 30.833 C 169.242 30.833,169.167 30.718,169.167 30.578 C 169.167 30.438,169.054 30.280,168.917 30.227 C 168.779 30.174,168.667 30.059,168.667 29.970 C 168.667 29.754,168.234 29.333,168.012 29.333 C 167.914 29.333,167.833 29.253,167.833 29.155 C 167.833 28.924,167.409 28.500,167.179 28.500 C 167.080 28.500,167.000 28.422,167.000 28.327 C 167.000 28.009,165.698 26.833,165.346 26.833 C 165.156 26.833,165.000 26.748,165.000 26.643 C 165.000 26.393,164.488 26.012,164.143 26.005 C 163.992 26.002,163.826 25.887,163.773 25.750 C 163.720 25.613,163.529 25.500,163.348 25.500 C 163.168 25.500,162.973 25.425,162.917 25.333 C 162.860 25.242,162.598 25.167,162.333 25.167 C 162.069 25.167,161.807 25.092,161.750 25.000 C 161.693 24.908,161.314 24.833,160.907 24.833 C 160.360 24.833,160.167 24.768,160.167 24.583 C 160.167 24.368,159.629 24.333,156.328 24.333 C 153.070 24.333,152.475 24.371,152.394 24.583 M36.042 25.083 C 35.688 25.485,35.742 63.429,36.097 63.566 C 36.897 63.872,44.592 63.667,44.880 63.331 C 45.138 63.029,45.167 62.469,45.167 57.665 C 45.167 50.939,44.631 51.667,49.583 51.667 C 51.972 51.667,53.333 51.606,53.333 51.500 C 53.333 51.408,53.708 51.333,54.167 51.333 C 54.796 51.333,55.000 51.272,55.000 51.083 C 55.000 50.909,55.176 50.833,55.583 50.833 C 55.904 50.833,56.167 50.758,56.167 50.667 C 56.167 50.575,56.354 50.500,56.583 50.500 C 56.813 50.500,57.000 50.433,57.000 50.351 C 57.000 50.270,57.188 50.156,57.417 50.098 C 57.646 50.041,57.833 49.920,57.833 49.830 C 57.833 49.740,57.914 49.667,58.012 49.667 C 58.110 49.667,58.295 49.573,58.423 49.458 C 58.929 49.005,59.157 48.833,59.256 48.833 C 59.430 48.833,60.667 47.524,60.667 47.340 C 60.667 47.245,60.747 47.167,60.845 47.167 C 61.139 47.167,61.500 46.714,61.500 46.345 C 61.500 46.155,61.585 46.000,61.690 46.000 C 61.946 46.000,62.321 45.485,62.328 45.125 C 62.331 44.965,62.446 44.833,62.583 44.833 C 62.739 44.833,62.833 44.676,62.833 44.417 C 62.833 44.188,62.908 44.000,63.000 44.000 C 63.092 44.000,63.167 43.845,63.167 43.655 C 63.167 43.465,63.279 43.197,63.417 43.060 C 63.554 42.922,63.667 42.515,63.667 42.155 C 63.667 41.795,63.742 41.500,63.833 41.500 C 63.939 41.500,64.000 40.306,64.000 38.250 C 64.000 36.194,63.939 35.000,63.833 35.000 C 63.742 35.000,63.667 34.737,63.667 34.417 C 63.667 34.009,63.591 33.833,63.417 33.833 C 63.243 33.833,63.167 33.659,63.167 33.260 C 63.167 32.944,63.092 32.640,63.000 32.583 C 62.908 32.527,62.833 32.345,62.833 32.180 C 62.833 32.015,62.646 31.739,62.417 31.567 C 62.187 31.395,62.000 31.085,62.000 30.877 C 62.000 30.653,61.899 30.500,61.750 30.500 C 61.612 30.500,61.500 30.387,61.500 30.250 C 61.500 30.113,61.425 30.000,61.333 30.000 C 61.242 30.000,61.167 29.850,61.167 29.667 C 61.167 29.481,61.056 29.333,60.917 29.333 C 60.779 29.333,60.667 29.253,60.667 29.155 C 60.667 28.932,60.246 28.500,60.030 28.500 C 59.941 28.500,59.826 28.387,59.773 28.250 C 59.720 28.113,59.562 28.000,59.422 28.000 C 59.282 28.000,59.167 27.925,59.167 27.833 C 59.167 27.742,59.054 27.667,58.917 27.667 C 58.779 27.667,58.667 27.581,58.667 27.477 C 58.667 27.226,58.155 26.845,57.809 26.839 C 57.659 26.836,57.492 26.721,57.440 26.583 C 57.387 26.446,57.191 26.333,57.005 26.333 C 56.819 26.333,56.667 26.258,56.667 26.167 C 56.667 26.075,56.412 26.000,56.101 26.000 C 55.752 26.000,55.499 25.904,55.440 25.750 C 55.380 25.593,55.125 25.500,54.755 25.500 C 54.432 25.500,54.167 25.425,54.167 25.333 C 54.167 25.235,53.583 25.167,52.750 25.167 C 51.917 25.167,51.333 25.098,51.333 25.000 C 51.333 24.709,36.299 24.791,36.042 25.083 M69.000 25.000 C 69.000 25.092,68.920 25.167,68.821 25.167 C 68.154 25.167,68.167 24.784,68.167 44.320 C 68.167 61.751,68.186 63.019,68.454 63.331 C 68.741 63.667,76.437 63.872,77.236 63.566 C 77.470 63.476,77.500 62.797,77.500 57.637 C 77.500 52.809,77.541 51.769,77.738 51.571 C 78.139 51.170,81.167 51.234,81.167 51.643 C 81.167 51.814,81.354 52.094,81.583 52.266 C 81.813 52.439,82.000 52.749,82.000 52.956 C 82.000 53.180,82.101 53.333,82.250 53.333 C 82.406 53.333,82.500 53.491,82.500 53.750 C 82.500 53.979,82.575 54.167,82.667 54.167 C 82.758 54.167,82.833 54.306,82.833 54.477 C 82.833 54.647,83.021 54.927,83.250 55.100 C 83.479 55.272,83.667 55.582,83.667 55.790 C 83.667 55.997,83.742 56.167,83.833 56.167 C 83.925 56.167,84.000 56.319,84.000 56.505 C 84.000 56.691,84.112 56.887,84.250 56.940 C 84.387 56.992,84.500 57.188,84.500 57.374 C 84.500 57.560,84.688 57.886,84.917 58.098 C 85.146 58.310,85.333 58.638,85.333 58.825 C 85.333 59.013,85.408 59.167,85.500 59.167 C 85.592 59.167,85.667 59.317,85.667 59.500 C 85.667 59.685,85.778 59.833,85.917 59.833 C 86.075 59.833,86.167 59.993,86.167 60.268 C 86.167 60.570,86.237 60.675,86.398 60.614 C 86.560 60.551,86.604 60.621,86.545 60.846 C 86.488 61.065,86.547 61.167,86.731 61.167 C 86.907 61.167,87.000 61.311,87.000 61.583 C 87.000 61.813,87.075 62.000,87.167 62.000 C 87.258 62.000,87.333 62.139,87.333 62.310 C 87.333 62.480,87.521 62.761,87.750 62.933 C 87.979 63.105,88.167 63.340,88.167 63.456 C 88.167 63.621,89.186 63.667,92.833 63.667 C 96.870 63.667,97.500 63.633,97.500 63.417 C 97.500 63.279,97.612 63.167,97.750 63.167 C 97.925 63.167,98.000 62.991,98.000 62.583 C 98.000 62.176,97.925 62.000,97.750 62.000 C 97.608 62.000,97.500 61.851,97.500 61.655 C 97.500 61.286,97.139 60.833,96.845 60.833 C 96.747 60.833,96.667 60.646,96.667 60.417 C 96.667 60.188,96.592 60.000,96.500 60.000 C 96.408 60.000,96.333 59.813,96.333 59.583 C 96.333 59.324,96.239 59.167,96.083 59.167 C 95.946 59.167,95.833 59.054,95.833 58.917 C 95.833 58.779,95.758 58.667,95.667 58.667 C 95.575 58.667,95.500 58.479,95.500 58.250 C 95.500 58.021,95.425 57.833,95.333 57.833 C 95.242 57.833,95.167 57.691,95.167 57.518 C 95.167 57.344,95.054 57.159,94.917 57.106 C 94.779 57.054,94.667 56.858,94.667 56.672 C 94.667 56.486,94.592 56.333,94.500 56.333 C 94.408 56.333,94.333 56.221,94.333 56.083 C 94.333 55.946,94.221 55.833,94.083 55.833 C 93.928 55.833,93.833 55.676,93.833 55.417 C 93.833 55.188,93.758 55.000,93.667 55.000 C 93.575 55.000,93.500 54.848,93.500 54.661 C 93.500 54.475,93.388 54.280,93.250 54.227 C 93.112 54.174,92.998 54.008,92.995 53.857 C 92.988 53.512,92.607 53.000,92.357 53.000 C 92.252 53.000,92.167 52.813,92.167 52.583 C 92.167 52.354,92.092 52.167,92.000 52.167 C 91.908 52.167,91.833 52.027,91.833 51.857 C 91.833 51.686,91.646 51.406,91.417 51.234 C 91.187 51.061,91.000 50.751,91.000 50.544 C 91.000 50.336,90.925 50.167,90.833 50.167 C 90.742 50.167,90.667 49.979,90.667 49.750 C 90.667 49.487,90.761 49.333,90.922 49.333 C 91.062 49.333,91.220 49.221,91.273 49.083 C 91.326 48.946,91.473 48.833,91.601 48.833 C 91.729 48.833,91.833 48.758,91.833 48.667 C 91.833 48.575,91.973 48.500,92.143 48.500 C 92.314 48.500,92.594 48.312,92.766 48.083 C 92.938 47.854,93.174 47.667,93.290 47.667 C 93.405 47.667,93.500 47.585,93.500 47.486 C 93.500 47.387,93.763 47.051,94.083 46.739 C 94.404 46.427,94.667 46.093,94.667 45.995 C 94.667 45.897,94.854 45.644,95.083 45.431 C 95.313 45.219,95.500 44.885,95.500 44.689 C 95.500 44.493,95.575 44.333,95.667 44.333 C 95.758 44.333,95.833 44.146,95.833 43.917 C 95.833 43.657,95.928 43.500,96.083 43.500 C 96.258 43.500,96.333 43.324,96.333 42.917 C 96.333 42.596,96.408 42.333,96.500 42.333 C 96.592 42.333,96.667 42.068,96.667 41.745 C 96.667 41.375,96.760 41.120,96.917 41.060 C 97.304 40.912,97.285 35.707,96.897 35.423 C 96.719 35.293,96.630 34.987,96.636 34.529 C 96.641 34.146,96.575 33.833,96.490 33.833 C 96.404 33.833,96.333 33.646,96.333 33.417 C 96.333 33.157,96.239 33.000,96.083 33.000 C 95.928 33.000,95.833 32.843,95.833 32.583 C 95.833 32.354,95.758 32.167,95.667 32.167 C 95.575 32.167,95.500 31.979,95.500 31.750 C 95.500 31.521,95.433 31.333,95.351 31.333 C 95.270 31.333,95.156 31.146,95.098 30.917 C 95.041 30.688,94.920 30.500,94.830 30.500 C 94.740 30.500,94.667 30.420,94.667 30.321 C 94.667 30.127,94.256 29.667,94.083 29.667 C 93.910 29.667,93.500 29.206,93.500 29.012 C 93.500 28.914,93.420 28.833,93.321 28.833 C 93.091 28.833,92.667 28.409,92.667 28.179 C 92.667 28.080,92.586 28.000,92.488 28.000 C 92.257 28.000,91.833 27.576,91.833 27.345 C 91.833 27.247,91.673 27.167,91.478 27.167 C 91.282 27.167,91.001 27.028,90.853 26.859 C 90.705 26.690,90.283 26.421,89.917 26.261 C 89.550 26.101,89.051 25.864,88.808 25.735 C 88.564 25.606,88.133 25.500,87.849 25.500 C 87.566 25.500,87.333 25.425,87.333 25.333 C 87.333 25.237,86.806 25.167,86.083 25.167 C 85.361 25.167,84.833 25.096,84.833 25.000 C 84.833 24.891,82.083 24.833,76.917 24.833 C 71.750 24.833,69.000 24.891,69.000 25.000 M176.167 25.000 C 176.167 25.092,176.086 25.167,175.988 25.167 C 175.320 25.167,175.333 24.780,175.333 44.405 C 175.333 56.802,175.390 63.167,175.500 63.167 C 175.592 63.167,175.667 63.279,175.667 63.417 C 175.667 63.759,199.088 63.800,199.554 63.458 C 199.812 63.270,199.835 62.848,199.795 59.000 L 199.750 54.750 192.375 54.707 C 185.973 54.669,185.000 54.630,185.000 54.415 C 185.000 54.278,184.925 54.167,184.833 54.167 C 184.730 54.167,184.667 53.243,184.667 51.728 L 184.667 49.289 185.125 48.895 L 185.583 48.500 191.875 48.500 L 198.167 48.500 198.167 44.238 C 198.167 40.767,198.123 39.932,197.929 39.738 C 197.731 39.540,196.622 39.500,191.345 39.500 C 185.816 39.500,185.000 39.468,185.000 39.250 C 185.000 39.112,184.925 39.000,184.833 39.000 C 184.551 39.000,184.618 34.692,184.905 34.405 C 185.104 34.206,186.311 34.167,192.238 34.167 C 198.192 34.167,199.333 34.129,199.333 33.934 C 199.333 33.807,199.446 33.659,199.583 33.606 C 199.796 33.525,199.833 32.928,199.833 29.648 L 199.833 25.786 199.335 25.310 L 198.836 24.833 187.502 24.833 C 180.056 24.833,176.167 24.891,176.167 25.000 M204.958 25.149 C 204.532 25.581,204.503 62.979,204.929 63.405 C 205.318 63.794,228.833 63.806,228.833 63.417 C 228.833 63.279,228.908 63.167,229.000 63.167 C 229.289 63.167,229.220 55.196,228.929 54.905 C 228.730 54.706,227.522 54.667,221.595 54.667 C 215.399 54.667,214.500 54.635,214.500 54.417 C 214.500 54.279,214.425 54.167,214.333 54.167 C 214.049 54.167,214.116 49.027,214.405 48.738 C 214.603 48.540,215.700 48.500,220.905 48.500 C 226.360 48.500,227.167 48.468,227.167 48.250 C 227.167 48.112,227.279 48.000,227.417 48.000 C 227.863 48.000,227.782 40.173,227.331 39.787 C 227.027 39.527,226.423 39.500,220.820 39.500 C 213.437 39.500,214.167 39.793,214.167 36.833 C 214.167 33.865,213.342 34.167,221.451 34.167 C 228.066 34.167,228.267 34.157,228.546 33.831 C 228.986 33.318,228.982 25.400,228.542 25.065 C 228.027 24.675,205.347 24.755,204.958 25.149 M234.667 25.000 C 234.667 25.092,234.586 25.167,234.488 25.167 C 233.820 25.167,233.833 24.780,233.833 44.405 C 233.833 56.802,233.890 63.167,234.000 63.167 C 234.092 63.167,234.167 63.279,234.167 63.417 C 234.167 63.636,235.315 63.667,243.505 63.667 C 251.652 63.667,252.856 63.635,252.940 63.417 C 253.010 63.234,253.299 63.167,254.018 63.167 C 254.561 63.167,255.000 63.092,255.000 63.000 C 255.000 62.908,255.227 62.833,255.505 62.833 C 255.801 62.833,256.050 62.729,256.106 62.583 C 256.159 62.446,256.382 62.333,256.601 62.333 C 256.821 62.333,257.000 62.258,257.000 62.167 C 257.000 62.075,257.188 62.000,257.417 62.000 C 257.676 62.000,257.833 61.906,257.833 61.750 C 257.833 61.594,257.991 61.500,258.250 61.500 C 258.479 61.500,258.667 61.425,258.667 61.333 C 258.667 61.242,258.854 61.167,259.083 61.167 C 259.343 61.167,259.500 61.072,259.500 60.917 C 259.500 60.775,259.649 60.667,259.845 60.667 C 260.214 60.667,260.667 60.306,260.667 60.012 C 260.667 59.914,260.779 59.833,260.917 59.833 C 261.054 59.833,261.167 59.758,261.167 59.667 C 261.167 59.575,261.290 59.500,261.440 59.500 C 261.730 59.500,263.667 57.596,263.667 57.311 C 263.667 57.089,264.096 56.667,264.321 56.667 C 264.420 56.667,264.500 56.554,264.500 56.417 C 264.500 56.279,264.575 56.167,264.667 56.167 C 264.758 56.167,264.833 56.011,264.833 55.821 C 264.833 55.452,265.194 55.000,265.488 55.000 C 265.586 55.000,265.667 54.813,265.667 54.583 C 265.667 54.354,265.742 54.167,265.833 54.167 C 265.925 54.167,266.000 53.979,266.000 53.750 C 266.000 53.491,266.094 53.333,266.250 53.333 C 266.406 53.333,266.500 53.176,266.500 52.917 C 266.500 52.688,266.575 52.500,266.667 52.500 C 266.758 52.500,266.833 52.237,266.833 51.917 C 266.833 51.509,266.909 51.333,267.083 51.333 C 267.257 51.333,267.333 51.159,267.333 50.760 C 267.333 50.444,267.408 50.140,267.500 50.083 C 267.592 50.027,267.667 49.654,267.667 49.254 C 267.667 48.821,267.751 48.500,267.875 48.459 C 268.222 48.343,268.271 40.529,267.925 40.397 C 267.740 40.326,267.667 40.065,267.667 39.482 C 267.667 39.034,267.592 38.667,267.500 38.667 C 267.408 38.667,267.333 38.327,267.333 37.911 C 267.333 37.394,267.255 37.126,267.083 37.060 C 266.946 37.008,266.833 36.785,266.833 36.566 C 266.833 36.346,266.758 36.167,266.667 36.167 C 266.575 36.167,266.500 36.014,266.500 35.828 C 266.500 35.642,266.387 35.446,266.250 35.394 C 266.112 35.341,266.000 35.118,266.000 34.899 C 266.000 34.667,265.902 34.500,265.766 34.500 C 265.613 34.500,265.562 34.383,265.618 34.167 C 265.679 33.935,265.623 33.833,265.436 33.833 C 265.260 33.833,265.167 33.689,265.167 33.417 C 265.167 33.188,265.092 33.000,265.000 33.000 C 264.908 33.000,264.833 32.887,264.833 32.750 C 264.833 32.612,264.763 32.500,264.678 32.500 C 264.592 32.500,264.475 32.350,264.417 32.167 C 264.289 31.765,261.943 29.333,261.683 29.333 C 261.583 29.333,261.500 29.221,261.500 29.083 C 261.500 28.942,261.351 28.833,261.155 28.833 C 260.786 28.833,260.333 28.473,260.333 28.179 C 260.333 28.080,260.221 28.000,260.083 28.000 C 259.946 28.000,259.833 27.925,259.833 27.833 C 259.833 27.742,259.691 27.667,259.518 27.667 C 259.344 27.667,259.159 27.554,259.106 27.417 C 259.054 27.279,258.858 27.167,258.672 27.167 C 258.486 27.167,258.333 27.092,258.333 27.000 C 258.333 26.908,258.154 26.833,257.934 26.833 C 257.715 26.833,257.492 26.721,257.440 26.583 C 257.387 26.446,257.191 26.333,257.005 26.333 C 256.819 26.333,256.667 26.258,256.667 26.167 C 256.667 26.075,256.413 26.000,256.104 26.000 C 255.794 26.000,255.447 25.887,255.333 25.750 C 255.214 25.606,254.851 25.500,254.480 25.500 C 254.124 25.500,253.833 25.425,253.833 25.333 C 253.833 25.233,253.167 25.167,252.167 25.167 C 251.167 25.167,250.500 25.100,250.500 25.000 C 250.500 24.891,247.750 24.833,242.583 24.833 C 237.417 24.833,234.667 24.891,234.667 25.000 M273.500 25.000 C 273.500 25.092,273.415 25.167,273.310 25.167 C 272.675 25.167,272.677 25.093,272.672 44.373 C 272.667 61.759,272.686 63.018,272.954 63.331 C 273.343 63.786,297.167 63.870,297.167 63.417 C 297.167 63.279,297.242 63.167,297.333 63.167 C 297.622 63.167,297.553 55.196,297.262 54.905 C 297.063 54.706,295.856 54.667,289.929 54.667 C 283.733 54.667,282.833 54.635,282.833 54.417 C 282.833 54.279,282.721 54.167,282.583 54.167 C 282.372 54.167,282.333 53.779,282.333 51.681 C 282.333 49.844,282.279 49.174,282.125 49.118 C 282.010 49.076,282.123 48.986,282.375 48.919 C 282.627 48.852,282.833 48.730,282.833 48.649 C 282.833 48.564,285.569 48.500,289.167 48.500 C 294.685 48.500,295.500 48.468,295.500 48.250 C 295.500 48.112,295.575 48.000,295.667 48.000 C 295.773 48.000,295.833 46.556,295.833 44.000 C 295.833 41.444,295.773 40.000,295.667 40.000 C 295.575 40.000,295.500 39.887,295.500 39.750 C 295.500 39.532,294.657 39.500,288.917 39.500 L 282.333 39.500 282.333 36.833 L 282.333 34.167 289.500 34.167 C 295.759 34.167,296.667 34.135,296.667 33.917 C 296.667 33.779,296.779 33.667,296.917 33.667 C 297.364 33.667,297.282 25.506,296.831 25.120 C 296.437 24.783,273.500 24.665,273.500 25.000 M302.292 25.203 C 301.875 25.724,301.834 63.167,302.250 63.167 C 302.387 63.167,302.500 63.279,302.500 63.417 C 302.500 63.632,303.083 63.667,306.750 63.667 C 310.417 63.667,311.000 63.632,311.000 63.417 C 311.000 63.279,311.112 63.167,311.250 63.167 C 311.467 63.167,311.500 62.425,311.500 57.488 C 311.500 50.784,311.315 51.333,313.571 51.333 C 315.162 51.333,315.167 51.335,315.167 51.750 C 315.167 51.979,315.237 52.167,315.322 52.167 C 315.408 52.167,315.531 52.335,315.596 52.542 C 315.661 52.748,315.854 53.038,316.024 53.186 C 316.194 53.334,316.333 53.616,316.333 53.811 C 316.333 54.016,316.439 54.167,316.583 54.167 C 316.739 54.167,316.833 54.324,316.833 54.583 C 316.833 54.813,316.908 55.000,317.000 55.000 C 317.092 55.000,317.167 55.139,317.167 55.310 C 317.167 55.480,317.354 55.761,317.583 55.933 C 317.813 56.105,318.000 56.415,318.000 56.623 C 318.000 56.847,318.101 57.000,318.250 57.000 C 318.406 57.000,318.500 57.157,318.500 57.417 C 318.500 57.646,318.575 57.833,318.667 57.833 C 318.758 57.833,318.833 57.993,318.833 58.189 C 318.833 58.385,319.021 58.719,319.250 58.931 C 319.479 59.144,319.667 59.433,319.667 59.575 C 319.667 59.717,319.742 59.833,319.833 59.833 C 319.925 59.833,320.000 59.986,320.000 60.172 C 320.000 60.358,320.112 60.554,320.250 60.606 C 320.387 60.659,320.500 60.882,320.500 61.101 C 320.500 61.321,320.575 61.500,320.667 61.500 C 320.758 61.500,320.833 61.612,320.833 61.750 C 320.833 61.887,320.946 62.000,321.083 62.000 C 321.221 62.000,321.333 62.104,321.333 62.231 C 321.333 62.553,321.767 63.355,322.031 63.523 C 322.151 63.599,324.331 63.663,326.875 63.664 L 331.500 63.667 331.500 62.583 C 331.500 61.972,331.427 61.500,331.333 61.500 C 331.242 61.500,331.167 61.350,331.167 61.167 C 331.167 60.981,331.056 60.833,330.917 60.833 C 330.761 60.833,330.667 60.676,330.667 60.417 C 330.667 60.188,330.600 60.000,330.518 60.000 C 330.436 60.000,330.322 59.813,330.265 59.583 C 330.207 59.354,330.087 59.167,329.997 59.167 C 329.907 59.167,329.833 59.054,329.833 58.917 C 329.833 58.779,329.758 58.667,329.667 58.667 C 329.575 58.667,329.500 58.514,329.500 58.328 C 329.500 58.142,329.387 57.946,329.250 57.894 C 329.112 57.841,329.000 57.656,329.000 57.482 C 329.000 57.309,328.925 57.167,328.833 57.167 C 328.742 57.167,328.667 57.054,328.667 56.917 C 328.667 56.779,328.554 56.667,328.417 56.667 C 328.261 56.667,328.167 56.509,328.167 56.250 C 328.167 56.021,328.092 55.833,328.000 55.833 C 327.908 55.833,327.833 55.646,327.833 55.417 C 327.833 55.157,327.739 55.000,327.583 55.000 C 327.446 55.000,327.333 54.864,327.333 54.698 C 327.333 54.532,327.183 54.235,327.000 54.038 C 326.817 53.842,326.667 53.527,326.667 53.340 C 326.667 53.149,326.557 53.000,326.417 53.000 C 326.275 53.000,326.167 52.851,326.167 52.655 C 326.167 52.286,325.806 51.833,325.512 51.833 C 325.414 51.833,325.333 51.646,325.333 51.417 C 325.333 51.188,325.258 51.000,325.167 51.000 C 325.075 51.000,325.000 50.813,325.000 50.583 C 325.000 50.324,324.906 50.167,324.750 50.167 C 324.300 50.167,324.445 49.383,324.917 49.265 C 325.146 49.207,325.333 49.087,325.333 48.997 C 325.333 48.907,325.414 48.833,325.512 48.833 C 325.743 48.833,326.167 48.409,326.167 48.179 C 326.167 48.080,326.322 48.000,326.512 48.000 C 326.881 48.000,327.333 47.639,327.333 47.345 C 327.333 47.247,327.414 47.167,327.512 47.167 C 327.806 47.167,328.167 46.714,328.167 46.345 C 328.167 46.155,328.247 46.000,328.345 46.000 C 328.568 46.000,329.000 45.579,329.000 45.363 C 329.000 45.275,329.112 45.159,329.250 45.106 C 329.387 45.054,329.500 44.858,329.500 44.672 C 329.500 44.486,329.575 44.333,329.667 44.333 C 329.758 44.333,329.833 44.178,329.833 43.988 C 329.833 43.798,329.946 43.530,330.083 43.393 C 330.221 43.255,330.333 42.961,330.333 42.738 C 330.333 42.515,330.408 42.333,330.500 42.333 C 330.592 42.333,330.667 41.966,330.667 41.518 C 330.667 40.947,330.742 40.674,330.917 40.606 C 331.122 40.528,331.167 40.106,331.167 38.250 C 331.167 36.394,331.122 35.972,330.917 35.894 C 330.742 35.826,330.667 35.553,330.667 34.982 C 330.667 34.534,330.592 34.167,330.500 34.167 C 330.408 34.167,330.333 33.939,330.333 33.661 C 330.333 33.366,330.229 33.116,330.083 33.060 C 329.946 33.008,329.833 32.785,329.833 32.566 C 329.833 32.346,329.758 32.167,329.667 32.167 C 329.575 32.167,329.500 31.979,329.500 31.750 C 329.500 31.491,329.406 31.333,329.250 31.333 C 329.108 31.333,329.000 31.184,329.000 30.987 C 329.000 30.635,327.824 29.333,327.507 29.333 C 327.411 29.333,327.333 29.257,327.333 29.163 C 327.333 28.883,325.558 27.167,325.268 27.167 C 325.121 27.167,325.000 27.092,325.000 27.000 C 325.000 26.908,324.887 26.833,324.750 26.833 C 324.612 26.833,324.500 26.760,324.500 26.670 C 324.500 26.580,324.313 26.459,324.083 26.402 C 323.854 26.344,323.667 26.230,323.667 26.149 C 323.667 26.067,323.404 26.000,323.083 26.000 C 322.676 26.000,322.500 25.925,322.500 25.750 C 322.500 25.576,322.325 25.500,321.927 25.500 C 321.611 25.500,321.307 25.425,321.250 25.333 C 321.193 25.242,320.626 25.167,319.990 25.167 C 319.330 25.167,318.833 25.095,318.833 25.000 C 318.833 24.891,316.015 24.834,310.708 24.836 L 302.583 24.838 302.292 25.203 M121.333 33.500 C 121.333 33.592,121.708 33.667,122.167 33.667 C 122.796 33.667,123.000 33.728,123.000 33.917 C 123.000 34.091,123.176 34.167,123.583 34.167 C 123.904 34.167,124.167 34.242,124.167 34.333 C 124.167 34.425,124.354 34.500,124.583 34.500 C 124.843 34.500,125.000 34.594,125.000 34.750 C 125.000 34.899,125.153 35.000,125.377 35.000 C 125.585 35.000,125.895 35.187,126.067 35.417 C 126.239 35.646,126.520 35.833,126.690 35.833 C 126.861 35.833,127.000 35.908,127.000 36.000 C 127.000 36.092,127.112 36.167,127.250 36.167 C 127.388 36.167,127.500 36.263,127.500 36.380 C 127.500 36.497,127.650 36.701,127.833 36.833 C 128.017 36.965,128.167 37.166,128.167 37.279 C 128.167 37.392,128.354 37.672,128.583 37.902 C 128.813 38.131,129.000 38.436,129.000 38.581 C 129.000 38.726,129.112 38.887,129.250 38.940 C 129.387 38.992,129.500 39.215,129.500 39.434 C 129.500 39.654,129.575 39.833,129.667 39.833 C 129.758 39.833,129.833 40.096,129.833 40.417 C 129.833 40.824,129.909 41.000,130.083 41.000 C 130.272 41.000,130.333 41.204,130.333 41.833 C 130.333 42.292,130.408 42.667,130.500 42.667 C 130.600 42.667,130.667 43.333,130.667 44.333 C 130.667 45.333,130.600 46.000,130.500 46.000 C 130.408 46.000,130.333 46.375,130.333 46.833 C 130.333 47.463,130.272 47.667,130.083 47.667 C 129.909 47.667,129.833 47.843,129.833 48.250 C 129.833 48.571,129.758 48.833,129.667 48.833 C 129.575 48.833,129.500 48.987,129.500 49.175 C 129.500 49.362,129.313 49.690,129.083 49.902 C 128.854 50.114,128.667 50.448,128.667 50.644 C 128.667 50.840,128.586 51.000,128.488 51.000 C 128.288 51.000,127.833 51.412,127.833 51.594 C 127.833 51.741,126.961 52.500,126.792 52.500 C 126.723 52.500,126.667 52.612,126.667 52.750 C 126.667 52.887,126.554 53.000,126.417 53.000 C 126.279 53.000,126.167 53.075,126.167 53.167 C 126.167 53.258,126.014 53.333,125.828 53.333 C 125.642 53.333,125.446 53.446,125.394 53.583 C 125.341 53.721,125.156 53.833,124.982 53.833 C 124.809 53.833,124.667 53.908,124.667 54.000 C 124.667 54.092,124.477 54.167,124.245 54.167 C 124.013 54.167,123.780 54.279,123.727 54.417 C 123.668 54.571,123.414 54.667,123.066 54.667 C 122.754 54.667,122.500 54.742,122.500 54.833 C 122.500 54.937,121.556 55.000,120.000 55.000 C 118.444 55.000,117.500 54.937,117.500 54.833 C 117.500 54.742,117.246 54.667,116.934 54.667 C 116.586 54.667,116.332 54.571,116.273 54.417 C 116.217 54.271,115.967 54.167,115.672 54.167 C 115.394 54.167,115.167 54.092,115.167 54.000 C 115.167 53.908,114.979 53.833,114.750 53.833 C 114.491 53.833,114.333 53.739,114.333 53.583 C 114.333 53.446,114.255 53.333,114.159 53.333 C 114.063 53.333,113.797 53.146,113.568 52.917 C 113.339 52.688,113.059 52.500,112.946 52.500 C 112.833 52.500,112.632 52.350,112.500 52.167 C 112.368 51.983,112.164 51.833,112.047 51.833 C 111.929 51.833,111.833 51.646,111.833 51.417 C 111.833 51.188,111.758 51.000,111.667 51.000 C 111.575 51.000,111.500 50.887,111.500 50.750 C 111.500 50.612,111.388 50.500,111.250 50.500 C 111.112 50.500,111.000 50.354,111.000 50.177 C 111.000 49.999,110.925 49.807,110.833 49.750 C 110.742 49.693,110.667 49.509,110.667 49.341 C 110.667 49.173,110.554 48.992,110.417 48.940 C 110.279 48.887,110.167 48.696,110.167 48.515 C 110.167 48.334,110.092 48.140,110.000 48.083 C 109.908 48.027,109.833 47.647,109.833 47.240 C 109.833 46.693,109.768 46.500,109.583 46.500 C 109.373 46.500,109.333 46.130,109.333 44.167 C 109.333 42.204,109.373 41.833,109.583 41.833 C 109.758 41.833,109.833 41.657,109.833 41.250 C 109.833 40.929,109.908 40.667,110.000 40.667 C 110.092 40.667,110.167 40.404,110.167 40.083 C 110.167 39.676,110.242 39.500,110.417 39.500 C 110.572 39.500,110.667 39.343,110.667 39.083 C 110.667 38.854,110.742 38.667,110.833 38.667 C 110.925 38.667,111.000 38.562,111.000 38.434 C 111.000 38.307,111.112 38.159,111.250 38.106 C 111.388 38.054,111.500 37.890,111.500 37.743 C 111.500 37.479,111.876 37.000,112.083 37.000 C 112.256 37.000,112.667 36.539,112.667 36.345 C 112.667 36.247,112.747 36.167,112.845 36.167 C 113.076 36.167,113.500 35.743,113.500 35.512 C 113.500 35.414,113.688 35.333,113.917 35.333 C 114.146 35.333,114.333 35.258,114.333 35.167 C 114.333 35.075,114.486 35.000,114.672 35.000 C 114.858 35.000,115.054 34.887,115.106 34.750 C 115.159 34.612,115.340 34.500,115.508 34.500 C 115.676 34.500,115.860 34.425,115.917 34.333 C 115.973 34.242,116.168 34.167,116.348 34.167 C 116.529 34.167,116.720 34.054,116.773 33.917 C 116.843 33.734,117.132 33.667,117.851 33.667 C 118.395 33.667,118.833 33.592,118.833 33.500 C 118.833 33.404,119.361 33.333,120.083 33.333 C 120.806 33.333,121.333 33.404,121.333 33.500 M51.000 33.917 C 51.000 34.091,51.176 34.167,51.583 34.167 C 51.904 34.167,52.167 34.242,52.167 34.333 C 52.167 34.425,52.271 34.500,52.399 34.500 C 52.527 34.500,52.674 34.612,52.727 34.750 C 52.780 34.887,52.933 35.000,53.067 35.000 C 53.201 35.000,53.364 35.169,53.429 35.375 C 53.494 35.581,53.687 35.871,53.857 36.020 C 54.027 36.168,54.167 36.449,54.167 36.645 C 54.167 36.849,54.273 37.000,54.417 37.000 C 54.617 37.000,54.667 37.250,54.667 38.250 C 54.667 39.250,54.617 39.500,54.417 39.500 C 54.261 39.500,54.167 39.657,54.167 39.917 C 54.167 40.146,54.092 40.333,54.000 40.333 C 53.908 40.333,53.833 40.521,53.833 40.750 C 53.833 40.979,53.753 41.167,53.655 41.167 C 53.424 41.167,53.000 41.591,53.000 41.821 C 53.000 41.920,52.887 42.000,52.750 42.000 C 52.612 42.000,52.500 42.075,52.500 42.167 C 52.500 42.258,52.350 42.333,52.167 42.333 C 51.981 42.333,51.833 42.444,51.833 42.583 C 51.833 43.027,45.838 42.947,45.454 42.498 C 45.047 42.023,45.012 34.167,45.417 34.167 C 45.554 34.167,45.667 34.054,45.667 33.917 C 45.667 33.705,46.074 33.667,48.333 33.667 C 50.593 33.667,51.000 33.705,51.000 33.917 M84.060 33.917 C 84.116 34.062,84.366 34.167,84.658 34.167 C 85.381 34.167,87.333 36.116,87.333 36.836 C 87.333 37.167,87.417 37.333,87.583 37.333 C 87.772 37.333,87.833 37.538,87.833 38.172 C 87.833 38.764,87.760 39.039,87.583 39.106 C 87.429 39.166,87.333 39.419,87.333 39.768 C 87.333 40.079,87.258 40.333,87.167 40.333 C 87.075 40.333,87.000 40.521,87.000 40.750 C 87.000 40.979,86.920 41.167,86.821 41.167 C 86.591 41.167,86.167 41.591,86.167 41.821 C 86.167 41.920,86.054 42.000,85.917 42.000 C 85.779 42.000,85.667 42.075,85.667 42.167 C 85.667 42.258,85.514 42.333,85.328 42.333 C 85.142 42.333,84.946 42.446,84.894 42.583 C 84.813 42.795,84.257 42.833,81.316 42.833 C 78.331 42.833,77.833 42.798,77.833 42.583 C 77.833 42.446,77.758 42.333,77.667 42.333 C 77.560 42.333,77.500 40.942,77.500 38.493 L 77.500 34.653 77.958 34.176 L 78.417 33.699 81.191 33.683 C 83.513 33.669,83.980 33.707,84.060 33.917 M318.000 33.917 C 318.000 34.091,318.176 34.167,318.583 34.167 C 318.904 34.167,319.167 34.242,319.167 34.333 C 319.167 34.425,319.239 34.500,319.328 34.500 C 319.545 34.500,320.500 35.445,320.500 35.661 C 320.500 35.756,320.575 35.833,320.667 35.833 C 320.758 35.833,320.833 35.983,320.833 36.167 C 320.833 36.352,320.944 36.500,321.083 36.500 C 321.264 36.500,321.333 36.685,321.333 37.167 C 321.333 37.533,321.408 37.833,321.500 37.833 C 321.592 37.833,321.667 38.096,321.667 38.417 C 321.667 38.737,321.592 39.000,321.500 39.000 C 321.408 39.000,321.333 39.300,321.333 39.667 C 321.333 40.148,321.264 40.333,321.083 40.333 C 320.942 40.333,320.833 40.483,320.833 40.679 C 320.833 41.048,320.473 41.500,320.179 41.500 C 320.080 41.500,320.000 41.580,320.000 41.679 C 320.000 41.973,319.548 42.333,319.179 42.333 C 318.983 42.333,318.833 42.442,318.833 42.583 C 318.833 42.798,318.333 42.833,315.333 42.833 C 312.333 42.833,311.833 42.798,311.833 42.583 C 311.833 42.446,311.758 42.333,311.667 42.333 C 311.560 42.333,311.500 40.861,311.500 38.250 C 311.500 35.639,311.560 34.167,311.667 34.167 C 311.758 34.167,311.833 34.054,311.833 33.917 C 311.833 33.703,312.287 33.667,314.917 33.667 C 317.546 33.667,318.000 33.703,318.000 33.917 M251.333 34.333 C 251.333 34.425,251.708 34.500,252.167 34.500 C 252.796 34.500,253.000 34.561,253.000 34.750 C 253.000 34.906,253.157 35.000,253.417 35.000 C 253.646 35.000,253.833 35.075,253.833 35.167 C 253.833 35.258,254.021 35.333,254.250 35.333 C 254.479 35.333,254.667 35.419,254.667 35.523 C 254.667 35.779,255.181 36.155,255.542 36.161 C 255.702 36.164,255.833 36.279,255.833 36.417 C 255.833 36.554,255.914 36.667,256.012 36.667 C 256.259 36.667,256.666 37.096,256.672 37.363 C 256.679 37.665,257.078 38.167,257.310 38.167 C 257.415 38.167,257.500 38.354,257.500 38.583 C 257.500 38.813,257.567 39.000,257.649 39.000 C 257.730 39.000,257.844 39.188,257.902 39.417 C 257.959 39.646,258.080 39.833,258.170 39.833 C 258.260 39.833,258.333 40.021,258.333 40.250 C 258.333 40.479,258.408 40.667,258.500 40.667 C 258.592 40.667,258.667 41.082,258.667 41.589 C 258.667 42.254,258.736 42.537,258.917 42.606 C 259.116 42.683,259.167 43.039,259.167 44.351 C 259.167 45.706,259.122 46.000,258.917 46.000 C 258.728 46.000,258.667 46.204,258.667 46.833 C 258.667 47.292,258.592 47.667,258.500 47.667 C 258.408 47.667,258.333 47.921,258.333 48.232 C 258.333 48.581,258.238 48.834,258.083 48.894 C 257.946 48.946,257.833 49.142,257.833 49.328 C 257.833 49.514,257.758 49.667,257.667 49.667 C 257.575 49.667,257.500 49.854,257.500 50.083 C 257.500 50.343,257.406 50.500,257.250 50.500 C 257.112 50.500,257.000 50.596,257.000 50.713 C 257.000 50.830,256.850 51.035,256.667 51.167 C 256.483 51.299,256.333 51.503,256.333 51.620 C 256.333 51.737,256.252 51.833,256.153 51.833 C 256.053 51.833,255.717 52.096,255.406 52.417 C 255.094 52.737,254.688 53.000,254.503 53.000 C 254.318 53.000,254.167 53.075,254.167 53.167 C 254.167 53.258,254.017 53.333,253.833 53.333 C 253.648 53.333,253.500 53.444,253.500 53.583 C 253.500 53.750,253.333 53.833,253.000 53.833 C 252.725 53.833,252.500 53.908,252.500 54.000 C 252.500 54.092,252.085 54.167,251.578 54.167 C 250.912 54.167,250.630 54.236,250.560 54.417 C 250.479 54.628,249.924 54.667,246.982 54.667 C 243.998 54.667,243.500 54.631,243.500 54.417 C 243.500 54.279,243.425 54.167,243.333 54.167 C 243.067 54.167,243.108 34.719,243.375 34.416 C 243.630 34.126,251.333 34.046,251.333 34.333 M178.890 75.750 C 178.891 76.483,178.920 76.763,178.956 76.371 C 178.991 75.979,178.990 75.379,178.954 75.037 C 178.919 74.696,178.890 75.017,178.890 75.750 M248.075 79.917 C 248.075 82.942,248.097 84.203,248.125 82.719 C 248.152 81.235,248.152 78.760,248.125 77.219 C 248.097 75.678,248.075 76.892,248.075 79.917 M240.980 76.116 C 241.084 76.317,241.243 76.528,241.334 76.584 C 241.620 76.760,241.515 76.502,241.146 76.118 L 240.792 75.750 240.980 76.116 M325.647 76.116 C 325.750 76.317,325.910 76.528,326.001 76.584 C 326.286 76.760,326.182 76.502,325.813 76.118 L 325.459 75.750 325.647 76.116 M80.399 79.904 C 80.411 80.481,80.491 80.744,80.667 80.791 C 80.840 80.838,80.856 80.815,80.720 80.718 C 80.612 80.641,80.491 80.242,80.452 79.831 L 80.381 79.083 80.399 79.904 " stroke="none" fill="#343c4c" fill-rule="evenodd"></path><path id="path3" d="" stroke="none" fill="#3c3c4c" fill-rule="evenodd"></path><path id="path4" d="M137.838 74.078 C 137.726 74.212,137.674 74.418,137.721 74.536 C 137.776 74.674,137.812 74.649,137.820 74.467 C 137.827 74.311,137.965 74.107,138.125 74.013 C 138.285 73.920,138.332 73.841,138.229 73.838 C 138.125 73.836,137.950 73.943,137.838 74.078 M60.408 80.000 C 60.408 82.979,60.430 84.198,60.458 82.708 C 60.486 81.219,60.486 78.781,60.458 77.292 C 60.430 75.802,60.408 77.021,60.408 80.000 M114.721 75.750 C 114.722 76.392,114.752 76.634,114.788 76.288 C 114.824 75.942,114.824 75.417,114.787 75.121 C 114.750 74.825,114.721 75.108,114.721 75.750 M169.523 75.698 C 169.510 76.312,169.556 76.849,169.625 76.891 C 169.694 76.934,169.728 76.582,169.702 76.109 C 169.622 74.689,169.547 74.515,169.523 75.698 M246.408 80.000 C 246.408 82.979,246.430 84.198,246.458 82.708 C 246.486 81.219,246.486 78.781,246.458 77.292 C 246.430 75.802,246.408 77.021,246.408 80.000 M254.135 76.600 C 254.107 77.663,254.140 78.567,254.208 78.610 C 254.277 78.652,254.333 77.782,254.333 76.677 C 254.333 74.115,254.203 74.064,254.135 76.600 M302.908 80.000 C 302.908 82.979,302.930 84.198,302.958 82.708 C 302.986 81.219,302.986 78.781,302.958 77.292 C 302.930 75.802,302.908 77.021,302.908 80.000 M331.074 80.000 C 331.074 82.979,331.097 84.198,331.125 82.708 C 331.152 81.219,331.152 78.781,331.125 77.292 C 331.097 75.802,331.074 77.021,331.074 80.000 M59.042 79.750 C 59.044 80.117,59.078 80.247,59.118 80.040 C 59.158 79.832,59.156 79.532,59.115 79.373 C 59.073 79.214,59.040 79.383,59.042 79.750 M132.217 80.000 C 132.217 80.504,132.248 80.710,132.286 80.458 C 132.324 80.206,132.324 79.794,132.286 79.542 C 132.248 79.290,132.217 79.496,132.217 80.000 M157.217 80.000 C 157.217 80.504,157.248 80.710,157.286 80.458 C 157.324 80.206,157.324 79.794,157.286 79.542 C 157.248 79.290,157.217 79.496,157.217 80.000 M240.203 83.097 L 240.239 85.417 240.291 83.359 C 240.340 81.443,240.364 81.316,240.630 81.523 C 240.844 81.688,240.833 81.640,240.585 81.330 C 240.403 81.103,240.234 80.885,240.210 80.847 C 240.186 80.809,240.183 81.822,240.203 83.097 M324.869 83.097 L 324.905 85.417 324.958 83.359 C 325.007 81.443,325.030 81.316,325.297 81.523 C 325.511 81.688,325.500 81.640,325.252 81.330 C 325.069 81.103,324.901 80.885,324.877 80.847 C 324.853 80.809,324.850 81.822,324.869 83.097 " stroke="none" fill="#6c906c" fill-rule="evenodd"></path></g></svg>