<svg id="visual" viewBox="0 0 900 600" width="900" height="600" xmlns="http://www.w3.org/2000/svg" xmlns:xlink="http://www.w3.org/1999/xlink" version="1.1"><path d="M0 440L16.7 443.7C33.3 447.3 66.7 454.7 100 453.8C133.3 453 166.7 444 200 440.8C233.3 437.7 266.7 440.3 300 443.2C333.3 446 366.7 449 400 449.2C433.3 449.3 466.7 446.7 500 440.8C533.3 435 566.7 426 600 425.3C633.3 424.7 666.7 432.3 700 440.2C733.3 448 766.7 456 800 454.5C833.3 453 866.7 442 883.3 436.5L900 431L900 601L883.3 601C866.7 601 833.3 601 800 601C766.7 601 733.3 601 700 601C666.7 601 633.3 601 600 601C566.7 601 533.3 601 500 601C466.7 601 433.3 601 400 601C366.7 601 333.3 601 300 601C266.7 601 233.3 601 200 601C166.7 601 133.3 601 100 601C66.7 601 33.3 601 16.7 601L0 601Z" fill="#3e8ed0"></path></svg>